M48
; DRILL file KiCad 10.0.5 date 2026-08-10T02:18:57
; FORMAT={-:-/ absolute / metric / decimal}
; #@! TF.CreationDate,2026-08-10T02:18:57+05:30
; #@! TF.GenerationSoftware,Kicad,Pcbnew,10.0.5
; #@! TF.FileFunction,Plated,1,2,PTH
FMAT,2
METRIC
; #@! TA.AperFunction,Plated,PTH,ViaDrill
T1C0.300
; #@! TA.AperFunction,Plated,PTH,ComponentDrill
T2C0.800
; #@! TA.AperFunction,Plated,PTH,ComponentDrill
T3C1.100
%
G90
G05
T1
X165.3Y-78.8
X170.4Y-93.9
X170.7Y-100.9
T2
X139.68Y-104.0
X139.68Y-106.54
X142.22Y-104.0
X142.22Y-106.54
X144.76Y-104.0
X144.76Y-106.54
X146.92Y-69.3
X147.3Y-104.0
X147.3Y-106.54
X149.46Y-69.3
X149.84Y-104.0
X149.84Y-106.54
X152.0Y-69.3
X152.38Y-104.0
X152.38Y-106.54
X154.54Y-69.3
X154.92Y-104.0
X154.92Y-106.54
X157.46Y-104.0
X157.46Y-106.54
X160.0Y-104.0
X160.0Y-106.54
X170.18Y-67.46
X170.18Y-70.0
X170.18Y-72.54
X170.18Y-75.08
X170.18Y-77.62
X170.18Y-80.16
X170.18Y-82.7
X170.18Y-85.24
X176.92Y-95.0
X176.92Y-102.62
X179.46Y-95.0
X179.46Y-102.62
X182.0Y-95.0
X182.0Y-102.62
X185.42Y-67.46
X185.42Y-70.0
X185.42Y-72.54
X185.42Y-75.08
X185.42Y-77.62
X185.42Y-80.16
X185.42Y-82.7
X185.42Y-85.24
X193.0Y-74.92
X193.0Y-80.0
X193.0Y-96.0
X193.0Y-101.08
X193.0Y-117.0
X193.0Y-122.08
T3
X175.46Y-125.0
X178.0Y-125.0
X183.46Y-125.0
X186.0Y-125.0
M30
