%TF.GenerationSoftware,KiCad,Pcbnew,10.0.5*%
%TF.CreationDate,2026-08-10T02:19:20+05:30*%
%TF.ProjectId,Audio_Sync_Lighting,41756469-6f5f-4537-996e-635f4c696768,rev?*%
%TF.SameCoordinates,Original*%
%TF.FileFunction,Copper,L1,Top*%
%TF.FilePolarity,Positive*%
%FSLAX46Y46*%
G04 Gerber Fmt 4.6, Leading zero omitted, Abs format (unit mm)*
G04 Created by KiCad (PCBNEW 10.0.5) date 2026-08-10 02:19:20*
%MOMM*%
%LPD*%
G01*
G04 APERTURE LIST*
G04 Aperture macros list*
%AMRoundRect*
0 Rectangle with rounded corners*
0 $1 Rounding radius*
0 $2 $3 $4 $5 $6 $7 $8 $9 X,Y pos of 4 corners*
0 Add a 4 corners polygon primitive as box body*
4,1,4,$2,$3,$4,$5,$6,$7,$8,$9,$2,$3,0*
0 Add four circle primitives for the rounded corners*
1,1,$1+$1,$2,$3*
1,1,$1+$1,$4,$5*
1,1,$1+$1,$6,$7*
1,1,$1+$1,$8,$9*
0 Add four rect primitives between the rounded corners*
20,1,$1+$1,$2,$3,$4,$5,0*
20,1,$1+$1,$4,$5,$6,$7,0*
20,1,$1+$1,$6,$7,$8,$9,0*
20,1,$1+$1,$8,$9,$2,$3,0*%
G04 Aperture macros list end*
%TA.AperFunction,ComponentPad*%
%ADD10C,1.270000*%
%TD*%
%TA.AperFunction,ComponentPad*%
%ADD11RoundRect,0.249999X-0.850001X-0.850001X0.850001X-0.850001X0.850001X0.850001X-0.850001X0.850001X0*%
%TD*%
%TA.AperFunction,ComponentPad*%
%ADD12C,2.200000*%
%TD*%
%TA.AperFunction,ViaPad*%
%ADD13C,0.600000*%
%TD*%
%TA.AperFunction,Conductor*%
%ADD14C,0.200000*%
%TD*%
%TA.AperFunction,Conductor*%
%ADD15C,0.400000*%
%TD*%
%TA.AperFunction,Conductor*%
%ADD16C,0.600000*%
%TD*%
G04 APERTURE END LIST*
D10*
%TO.P,U3,1,L/R_1*%
%TO.N,GND*%
X176920000Y-102620000D03*
%TO.P,U3,2,WS_2*%
%TO.N,Net-(U1-5)*%
X179460000Y-102620000D03*
%TO.P,U3,3,SCK_3*%
%TO.N,Net-(U1-4{slash}SCK)*%
X182000000Y-102620000D03*
%TO.P,U3,4,GND_4*%
%TO.N,GND*%
X176920000Y-95000000D03*
%TO.P,U3,5,VDD_5*%
%TO.N,+3.3V*%
X179460000Y-95000000D03*
%TO.P,U3,6,SD_6*%
%TO.N,Net-(U1-6{slash}SD)*%
X182000000Y-95000000D03*
%TD*%
%TO.P,U7,1,5V_1*%
%TO.N,+5V*%
X147300000Y-104000000D03*
X149840000Y-104000000D03*
X152380000Y-104000000D03*
%TO.P,U7,2,GND_2*%
%TO.N,GND*%
X139680000Y-106540000D03*
X142220000Y-106540000D03*
X144760000Y-106540000D03*
X147300000Y-106540000D03*
X149840000Y-106540000D03*
X152380000Y-106540000D03*
X154920000Y-106540000D03*
X157460000Y-106540000D03*
X160000000Y-106540000D03*
%TO.P,U7,3,3V3_3*%
%TO.N,+3.3V*%
X139680000Y-104000000D03*
X142220000Y-104000000D03*
X144760000Y-104000000D03*
%TO.P,U7,4,DC_IN_4*%
%TO.N,Net-(J1-Pin_1)*%
X154920000Y-104000000D03*
X157460000Y-104000000D03*
X160000000Y-104000000D03*
%TD*%
%TO.P,U8,1,GND_1*%
%TO.N,GND*%
X193000000Y-122080000D03*
%TO.P,U8,2,TRIG_2*%
%TO.N,Net-(U1-0)*%
X193000000Y-117000000D03*
%TD*%
%TO.P,U5,1,GND_1*%
%TO.N,GND*%
X193000000Y-101080000D03*
%TO.P,U5,2,TRIG_2*%
%TO.N,Net-(U1-1)*%
X193000000Y-96000000D03*
%TD*%
%TO.P,U4,1,GND_1*%
%TO.N,GND*%
X193000000Y-80000000D03*
%TO.P,U4,2,TRIG_2*%
%TO.N,Net-(U1-3)*%
X193000000Y-74920000D03*
%TD*%
D11*
%TO.P,J2,1,Pin_1_1*%
%TO.N,Net-(J1-Pin_1)*%
X183460000Y-125000000D03*
D12*
%TO.P,J2,2,Pin_2_2*%
X186000000Y-125000000D03*
%TD*%
D11*
%TO.P,J1,1,Pin_1_1*%
%TO.N,Net-(J1-Pin_1)*%
X175460000Y-125000000D03*
D12*
%TO.P,J1,2,Pin_2_2*%
X178000000Y-125000000D03*
%TD*%
D10*
%TO.P,U2,1,GND_1*%
%TO.N,GND*%
X146920000Y-69300000D03*
%TO.P,U2,2,3V3_2*%
%TO.N,+3.3V*%
X149460000Y-69300000D03*
%TO.P,U2,3,SCK_3*%
%TO.N,Net-(U1-9{slash}SCL)*%
X152000000Y-69300000D03*
%TO.P,U2,4,SDA_4*%
%TO.N,Net-(U1-8{slash}SDA)*%
X154540000Y-69300000D03*
%TD*%
%TO.P,U1,1,5_1*%
%TO.N,Net-(U1-5)*%
X170180000Y-67460000D03*
%TO.P,U1,2,6/SD_2*%
%TO.N,Net-(U1-6{slash}SD)*%
X170180000Y-70000000D03*
%TO.P,U1,3,7_3*%
%TO.N,unconnected-(U1-7-Pad3)*%
X170180000Y-72540000D03*
%TO.P,U1,4,8/SDA_4*%
%TO.N,Net-(U1-8{slash}SDA)*%
X170180000Y-75080000D03*
%TO.P,U1,5,9/SCL_5*%
%TO.N,Net-(U1-9{slash}SCL)*%
X170180000Y-77620000D03*
%TO.P,U1,6,10_6*%
%TO.N,unconnected-(U1-10-Pad6)*%
X170180000Y-80160000D03*
%TO.P,U1,7,20/RX_7*%
%TO.N,unconnected-(U1-20{slash}RX-Pad7)*%
X170180000Y-82700000D03*
%TO.P,U1,8,21/TX_8*%
%TO.N,unconnected-(U1-21{slash}TX-Pad8)*%
X170180000Y-85240000D03*
%TO.P,U1,9,5V_9*%
%TO.N,+5V*%
X185420000Y-67460000D03*
%TO.P,U1,10,GND_10*%
%TO.N,GND*%
X185420000Y-70000000D03*
%TO.P,U1,11,3V3_11*%
%TO.N,unconnected-(U1-3V3-Pad11)*%
X185420000Y-72540000D03*
%TO.P,U1,12,4/SCK_12*%
%TO.N,Net-(U1-4{slash}SCK)*%
X185420000Y-75080000D03*
%TO.P,U1,13,3_13*%
%TO.N,Net-(U1-3)*%
X185420000Y-77620000D03*
%TO.P,U1,14,2_14*%
%TO.N,unconnected-(U1-2-Pad14)*%
X185420000Y-80160000D03*
%TO.P,U1,15,1_15*%
%TO.N,Net-(U1-1)*%
X185420000Y-82700000D03*
%TO.P,U1,16,0_16*%
%TO.N,Net-(U1-0)*%
X185420000Y-85240000D03*
%TD*%
D13*
%TO.N,Net-(U1-5)*%
X170400000Y-93900000D03*
X170700000Y-100900000D03*
X165300000Y-78800000D03*
%TD*%
%TO.N,Net-(U1-9{slash}SCL)*%
D14*
X153200000Y-70500000D02*
X152000000Y-69300000D01*
X169160000Y-76600000D02*
X160500000Y-76600000D01*
X153200000Y-74400000D02*
X153200000Y-70500000D01*
X160500000Y-76600000D02*
X159000000Y-75100000D01*
X153900000Y-75100000D02*
X153200000Y-74400000D01*
X170180000Y-77620000D02*
X169160000Y-76600000D01*
X159000000Y-75100000D02*
X153900000Y-75100000D01*
%TO.N,Net-(U1-6{slash}SD)*%
X175100000Y-74920000D02*
X175100000Y-85400000D01*
X181000000Y-94000000D02*
X182000000Y-95000000D01*
X178300000Y-87400000D02*
X181000000Y-90100000D01*
X181000000Y-90100000D02*
X181000000Y-94000000D01*
X177100000Y-87400000D02*
X178300000Y-87400000D01*
X170180000Y-70000000D02*
X175100000Y-74920000D01*
X175100000Y-85400000D02*
X177100000Y-87400000D01*
%TO.N,Net-(U1-3)*%
X185420000Y-77620000D02*
X186400000Y-78600000D01*
X186400000Y-78600000D02*
X190900000Y-78600000D01*
X193000000Y-76500000D02*
X193000000Y-74920000D01*
X190900000Y-78600000D02*
X193000000Y-76500000D01*
%TO.N,+5V*%
D15*
X147300000Y-104000000D02*
X149840000Y-104000000D01*
X149840000Y-104000000D02*
X152380000Y-104000000D01*
%TO.N,Net-(U1-5)*%
D14*
X179460000Y-102620000D02*
X179460000Y-105240000D01*
X179100000Y-105600000D02*
X172800000Y-105600000D01*
X170700000Y-103500000D02*
X170700000Y-100900000D01*
X166200000Y-89800000D02*
X166200000Y-79700000D01*
X170300000Y-93900000D02*
X166200000Y-89800000D01*
X170400000Y-93900000D02*
X170300000Y-93900000D01*
X166200000Y-79700000D02*
X165300000Y-78800000D01*
X172800000Y-105600000D02*
X170700000Y-103500000D01*
X179460000Y-105240000D02*
X179100000Y-105600000D01*
%TO.N,Net-(U1-4{slash}SCK)*%
X183700000Y-88400000D02*
X185200000Y-89900000D01*
X184220000Y-75080000D02*
X183700000Y-75600000D01*
X182880000Y-103500000D02*
X182000000Y-102620000D01*
X183700000Y-103500000D02*
X182880000Y-103500000D01*
X185200000Y-102000000D02*
X183700000Y-103500000D01*
X183700000Y-75600000D02*
X183700000Y-88400000D01*
X185200000Y-89900000D02*
X185200000Y-102000000D01*
X185420000Y-75080000D02*
X184220000Y-75080000D01*
%TO.N,Net-(U1-8{slash}SDA)*%
X158540000Y-73300000D02*
X154540000Y-69300000D01*
X170180000Y-75080000D02*
X168400000Y-73300000D01*
X168400000Y-73300000D02*
X158540000Y-73300000D01*
%TO.N,+3.3V*%
D15*
X139680000Y-104000000D02*
X142220000Y-104000000D01*
D14*
X144760000Y-101940000D02*
X147600000Y-99100000D01*
X179460000Y-96740000D02*
X179460000Y-95000000D01*
D15*
X142220000Y-104000000D02*
X144760000Y-104000000D01*
D14*
X144760000Y-104000000D02*
X144760000Y-101940000D01*
X177100000Y-99100000D02*
X179460000Y-96740000D01*
D15*
X150700000Y-70540000D02*
X149460000Y-69300000D01*
X139680000Y-104000000D02*
X139680000Y-98720000D01*
X139680000Y-98720000D02*
X150700000Y-87700000D01*
X150700000Y-87700000D02*
X150700000Y-70540000D01*
D14*
X147600000Y-99100000D02*
X177100000Y-99100000D01*
%TO.N,Net-(J1-Pin_1)*%
D16*
X171400000Y-123000000D02*
X173400000Y-125000000D01*
X166900000Y-104000000D02*
X171400000Y-108500000D01*
D15*
X175460000Y-125000000D02*
X178000000Y-125000000D01*
X154920000Y-104000000D02*
X157460000Y-104000000D01*
D16*
X160000000Y-104000000D02*
X166900000Y-104000000D01*
X178000000Y-125000000D02*
X183460000Y-125000000D01*
D15*
X157460000Y-104000000D02*
X160000000Y-104000000D01*
X183460000Y-125000000D02*
X186000000Y-125000000D01*
D16*
X173400000Y-125000000D02*
X175460000Y-125000000D01*
X171400000Y-108500000D02*
X171400000Y-123000000D01*
%TD*%
%TA.AperFunction,Conductor*%
%TO.N,GND*%
G36*
X151562819Y-70351886D02*
G01*
X151564115Y-70352307D01*
X151564119Y-70352309D01*
X151734103Y-70407540D01*
X151910634Y-70435500D01*
X151910635Y-70435500D01*
X152089364Y-70435500D01*
X152089366Y-70435500D01*
X152196941Y-70418461D01*
X152266232Y-70427415D01*
X152304018Y-70453253D01*
X152563181Y-70712416D01*
X152596666Y-70773739D01*
X152599500Y-70800097D01*
X152599500Y-74313330D01*
X152599499Y-74313348D01*
X152599499Y-74479054D01*
X152599498Y-74479054D01*
X152604977Y-74499500D01*
X152640423Y-74631785D01*
X152640424Y-74631786D01*
X152655173Y-74657334D01*
X152655174Y-74657335D01*
X152719475Y-74768709D01*
X152719481Y-74768717D01*
X152838349Y-74887585D01*
X152838355Y-74887590D01*
X153415139Y-75464374D01*
X153415149Y-75464385D01*
X153419479Y-75468715D01*
X153419480Y-75468716D01*
X153531284Y-75580520D01*
X153531286Y-75580521D01*
X153531290Y-75580524D01*
X153668209Y-75659573D01*
X153668216Y-75659577D01*
X153780019Y-75689534D01*
X153820942Y-75700500D01*
X153820943Y-75700500D01*
X158699903Y-75700500D01*
X158766942Y-75720185D01*
X158787584Y-75736819D01*
X160015139Y-76964374D01*
X160015149Y-76964385D01*
X160019479Y-76968715D01*
X160019480Y-76968716D01*
X160131284Y-77080520D01*
X160131286Y-77080521D01*
X160131290Y-77080524D01*
X160268209Y-77159573D01*
X160268216Y-77159577D01*
X160380019Y-77189534D01*
X160420942Y-77200500D01*
X160420943Y-77200500D01*
X168859903Y-77200500D01*
X168926942Y-77220185D01*
X168947584Y-77236819D01*
X169026745Y-77315980D01*
X169060230Y-77377303D01*
X169061537Y-77423058D01*
X169044500Y-77530628D01*
X169044500Y-77709365D01*
X169072460Y-77885898D01*
X169072460Y-77885901D01*
X169127689Y-78055878D01*
X169127691Y-78055881D01*
X169208833Y-78215132D01*
X169313889Y-78359728D01*
X169440272Y-78486111D01*
X169584868Y-78591167D01*
X169744119Y-78672309D01*
X169744121Y-78672310D01*
X169894446Y-78721153D01*
X169914103Y-78727540D01*
X170090634Y-78755500D01*
X170090635Y-78755500D01*
X170269365Y-78755500D01*
X170269366Y-78755500D01*
X170445897Y-78727540D01*
X170445900Y-78727539D01*
X170445901Y-78727539D01*
X170615878Y-78672310D01*
X170615878Y-78672309D01*
X170615881Y-78672309D01*
X170775132Y-78591167D01*
X170919728Y-78486111D01*
X171046111Y-78359728D01*
X171151167Y-78215132D01*
X171232309Y-78055881D01*
X171232310Y-78055878D01*
X171287539Y-77885901D01*
X171287539Y-77885900D01*
X171287540Y-77885897D01*
X171315500Y-77709366D01*
X171315500Y-77530634D01*
X171287540Y-77354103D01*
X171287539Y-77354099D01*
X171287539Y-77354098D01*
X171232310Y-77184121D01*
X171232308Y-77184118D01*
X171219804Y-77159576D01*
X171151167Y-77024868D01*
X171046111Y-76880272D01*
X170919728Y-76753889D01*
X170775132Y-76648833D01*
X170615881Y-76567691D01*
X170615878Y-76567689D01*
X170445899Y-76512460D01*
X170320393Y-76492582D01*
X170269366Y-76484500D01*
X170090634Y-76484500D01*
X170090628Y-76484500D01*
X169983058Y-76501537D01*
X169913765Y-76492582D01*
X169875980Y-76466745D01*
X169806911Y-76397676D01*
X169773426Y-76336353D01*
X169778410Y-76266661D01*
X169820282Y-76210728D01*
X169885746Y-76186311D01*
X169913990Y-76187522D01*
X169914102Y-76187539D01*
X169914103Y-76187540D01*
X170090634Y-76215500D01*
X170090635Y-76215500D01*
X170269365Y-76215500D01*
X170269366Y-76215500D01*
X170445897Y-76187540D01*
X170445900Y-76187539D01*
X170445901Y-76187539D01*
X170615878Y-76132310D01*
X170615878Y-76132309D01*
X170615881Y-76132309D01*
X170775132Y-76051167D01*
X170919728Y-75946111D01*
X171046111Y-75819728D01*
X171151167Y-75675132D01*
X171232309Y-75515881D01*
X171249045Y-75464374D01*
X171287539Y-75345901D01*
X171287539Y-75345900D01*
X171287540Y-75345897D01*
X171315500Y-75169366D01*
X171315500Y-74990634D01*
X171287540Y-74814103D01*
X171287539Y-74814099D01*
X171287539Y-74814098D01*
X171232310Y-74644121D01*
X171232308Y-74644118D01*
X171226025Y-74631785D01*
X171151167Y-74484868D01*
X171046111Y-74340272D01*
X170919728Y-74213889D01*
X170775132Y-74108833D01*
X170615881Y-74027691D01*
X170615878Y-74027689D01*
X170445899Y-73972460D01*
X170296723Y-73948833D01*
X170269366Y-73944500D01*
X170090634Y-73944500D01*
X170090628Y-73944500D01*
X169983058Y-73961537D01*
X169913765Y-73952582D01*
X169875980Y-73926745D01*
X169806911Y-73857676D01*
X169773426Y-73796353D01*
X169778410Y-73726661D01*
X169820282Y-73670728D01*
X169885746Y-73646311D01*
X169913990Y-73647522D01*
X169914102Y-73647539D01*
X169914103Y-73647540D01*
X170090634Y-73675500D01*
X170090635Y-73675500D01*
X170269365Y-73675500D01*
X170269366Y-73675500D01*
X170445897Y-73647540D01*
X170445900Y-73647539D01*
X170445901Y-73647539D01*
X170615878Y-73592310D01*
X170615878Y-73592309D01*
X170615881Y-73592309D01*
X170775132Y-73511167D01*
X170919728Y-73406111D01*
X171046111Y-73279728D01*
X171151167Y-73135132D01*
X171232309Y-72975881D01*
X171232310Y-72975878D01*
X171287539Y-72805901D01*
X171287539Y-72805900D01*
X171287540Y-72805897D01*
X171315500Y-72629366D01*
X171315500Y-72450634D01*
X171287540Y-72274103D01*
X171287539Y-72274101D01*
X171287522Y-72273991D01*
X171296476Y-72204698D01*
X171341473Y-72151246D01*
X171408224Y-72130606D01*
X171475538Y-72149331D01*
X171497676Y-72166912D01*
X174463181Y-75132416D01*
X174496666Y-75193739D01*
X174499500Y-75220097D01*
X174499500Y-85313330D01*
X174499499Y-85313348D01*
X174499499Y-85479054D01*
X174499498Y-85479054D01*
X174540424Y-85631789D01*
X174540425Y-85631790D01*
X174560492Y-85666546D01*
X174560493Y-85666548D01*
X174619475Y-85768709D01*
X174619481Y-85768717D01*
X174738349Y-85887585D01*
X174738355Y-85887590D01*
X176615139Y-87764374D01*
X176615149Y-87764385D01*
X176619479Y-87768715D01*
X176619480Y-87768716D01*
X176731284Y-87880520D01*
X176798767Y-87919481D01*
X176868215Y-87959577D01*
X177020943Y-88000500D01*
X177179057Y-88000500D01*
X177999903Y-88000500D01*
X178066942Y-88020185D01*
X178087584Y-88036819D01*
X180363181Y-90312416D01*
X180396666Y-90373739D01*
X180399500Y-90400097D01*
X180399500Y-93913330D01*
X180399499Y-93913348D01*
X180399499Y-94035667D01*
X180379814Y-94102706D01*
X180327010Y-94148461D01*
X180257852Y-94158405D01*
X180202613Y-94135985D01*
X180055132Y-94028833D01*
X179895881Y-93947691D01*
X179895878Y-93947689D01*
X179725899Y-93892460D01*
X179600393Y-93872582D01*
X179549366Y-93864500D01*
X179370634Y-93864500D01*
X179319607Y-93872582D01*
X179194101Y-93892460D01*
X179194098Y-93892460D01*
X179024121Y-93947689D01*
X179024118Y-93947691D01*
X178864867Y-94028833D01*
X178720270Y-94133890D01*
X178593890Y-94260270D01*
X178488833Y-94404867D01*
X178407691Y-94564118D01*
X178407689Y-94564121D01*
X178352460Y-94734098D01*
X178352460Y-94734101D01*
X178324500Y-94910634D01*
X178324500Y-95089365D01*
X178352460Y-95265898D01*
X178352460Y-95265901D01*
X178407689Y-95435878D01*
X178407691Y-95435881D01*
X178488833Y-95595132D01*
X178593889Y-95739728D01*
X178720272Y-95866111D01*
X178808388Y-95930131D01*
X178851051Y-95985457D01*
X178859500Y-96030446D01*
X178859500Y-96439903D01*
X178839815Y-96506942D01*
X178823181Y-96527584D01*
X176887584Y-98463181D01*
X176826261Y-98496666D01*
X176799903Y-98499500D01*
X147686670Y-98499500D01*
X147686654Y-98499499D01*
X147679058Y-98499499D01*
X147520943Y-98499499D01*
X147444579Y-98519961D01*
X147368214Y-98540423D01*
X147368209Y-98540426D01*
X147231290Y-98619475D01*
X147231282Y-98619481D01*
X144279481Y-101571282D01*
X144279480Y-101571284D01*
X144234708Y-101648833D01*
X144229361Y-101658094D01*
X144229359Y-101658096D01*
X144200425Y-101708209D01*
X144200424Y-101708210D01*
X144200423Y-101708215D01*
X144159499Y-101860943D01*
X144159499Y-101860945D01*
X144159499Y-102029046D01*
X144159500Y-102029059D01*
X144159500Y-102969552D01*
X144139815Y-103036591D01*
X144108386Y-103069870D01*
X144020270Y-103133890D01*
X144020269Y-103133891D01*
X143890980Y-103263181D01*
X143829657Y-103296666D01*
X143803299Y-103299500D01*
X143176701Y-103299500D01*
X143109662Y-103279815D01*
X143089020Y-103263181D01*
X142959729Y-103133890D01*
X142955722Y-103130979D01*
X142815132Y-103028833D01*
X142655881Y-102947691D01*
X142655878Y-102947689D01*
X142485899Y-102892460D01*
X142368209Y-102873820D01*
X142309366Y-102864500D01*
X142130634Y-102864500D01*
X142071790Y-102873820D01*
X141954101Y-102892460D01*
X141954098Y-102892460D01*
X141784121Y-102947689D01*
X141784118Y-102947691D01*
X141624867Y-103028833D01*
X141480270Y-103133890D01*
X141480269Y-103133891D01*
X141350980Y-103263181D01*
X141289657Y-103296666D01*
X141263299Y-103299500D01*
X140636701Y-103299500D01*
X140569662Y-103279815D01*
X140549019Y-103263181D01*
X140546113Y-103260275D01*
X140546111Y-103260272D01*
X140419728Y-103133889D01*
X140419727Y-103133888D01*
X140416818Y-103130979D01*
X140383334Y-103069656D01*
X140380500Y-103043298D01*
X140380500Y-99061518D01*
X140400185Y-98994479D01*
X140416819Y-98973837D01*
X140511945Y-98878711D01*
X141649500Y-98878711D01*
X141649500Y-99121288D01*
X141681161Y-99361785D01*
X141743947Y-99596104D01*
X141836773Y-99820205D01*
X141836776Y-99820212D01*
X141958064Y-100030289D01*
X141958066Y-100030292D01*
X141958067Y-100030293D01*
X142105733Y-100222736D01*
X142105739Y-100222743D01*
X142277256Y-100394260D01*
X142277262Y-100394265D01*
X142469711Y-100541936D01*
X142679788Y-100663224D01*
X142903900Y-100756054D01*
X143138211Y-100818838D01*
X143318586Y-100842584D01*
X143378711Y-100850500D01*
X143378712Y-100850500D01*
X143621289Y-100850500D01*
X143669388Y-100844167D01*
X143861789Y-100818838D01*
X144096100Y-100756054D01*
X144320212Y-100663224D01*
X144530289Y-100541936D01*
X144722738Y-100394265D01*
X144894265Y-100222738D01*
X145041936Y-100030289D01*
X145163224Y-99820212D01*
X145256054Y-99596100D01*
X145318838Y-99361789D01*
X145350500Y-99121288D01*
X145350500Y-98878712D01*
X145318838Y-98638211D01*
X145256054Y-98403900D01*
X145163224Y-98179788D01*
X145041936Y-97969711D01*
X144894265Y-97777262D01*
X144894260Y-97777256D01*
X144722743Y-97605739D01*
X144722736Y-97605733D01*
X144530293Y-97458067D01*
X144530292Y-97458066D01*
X144530289Y-97458064D01*
X144320212Y-97336776D01*
X144320205Y-97336773D01*
X144096104Y-97243947D01*
X143861785Y-97181161D01*
X143621289Y-97149500D01*
X143621288Y-97149500D01*
X143378712Y-97149500D01*
X143378711Y-97149500D01*
X143138214Y-97181161D01*
X142903895Y-97243947D01*
X142679794Y-97336773D01*
X142679785Y-97336777D01*
X142469706Y-97458067D01*
X142277263Y-97605733D01*
X142277256Y-97605739D01*
X142105739Y-97777256D01*
X142105733Y-97777263D01*
X141958067Y-97969706D01*
X141836777Y-98179785D01*
X141836773Y-98179794D01*
X141743947Y-98403895D01*
X141681161Y-98638214D01*
X141649500Y-98878711D01*
X140511945Y-98878711D01*
X144479988Y-94910668D01*
X175785000Y-94910668D01*
X175785000Y-95089331D01*
X175812946Y-95265780D01*
X175868155Y-95435693D01*
X175949260Y-95594869D01*
X175958651Y-95607793D01*
X175958652Y-95607794D01*
X176520000Y-95046446D01*
X176520000Y-95052661D01*
X176547259Y-95154394D01*
X176599920Y-95245606D01*
X176674394Y-95320080D01*
X176765606Y-95372741D01*
X176867339Y-95400000D01*
X176873554Y-95400000D01*
X176312205Y-95961347D01*
X176312205Y-95961348D01*
X176325129Y-95970738D01*
X176484306Y-96051844D01*
X176654219Y-96107053D01*
X176830669Y-96135000D01*
X177009331Y-96135000D01*
X177185780Y-96107053D01*
X177355693Y-96051844D01*
X177514867Y-95970739D01*
X177514872Y-95970737D01*
X177527794Y-95961347D01*
X176966447Y-95400000D01*
X176972661Y-95400000D01*
X177074394Y-95372741D01*
X177165606Y-95320080D01*
X177240080Y-95245606D01*
X177292741Y-95154394D01*
X177320000Y-95052661D01*
X177320000Y-95046446D01*
X177881348Y-95607794D01*
X177890737Y-95594872D01*
X177890739Y-95594867D01*
X177971844Y-95435693D01*
X178027053Y-95265780D01*
X178055000Y-95089331D01*
X178055000Y-94910668D01*
X178027053Y-94734219D01*
X177971844Y-94564306D01*
X177890738Y-94405129D01*
X177881347Y-94392205D01*
X177320000Y-94953552D01*
X177320000Y-94947339D01*
X177292741Y-94845606D01*
X177240080Y-94754394D01*
X177165606Y-94679920D01*
X177074394Y-94627259D01*
X176972661Y-94600000D01*
X176966447Y-94600000D01*
X177527794Y-94038652D01*
X177527793Y-94038651D01*
X177514869Y-94029260D01*
X177355693Y-93948155D01*
X177185780Y-93892946D01*
X177009331Y-93865000D01*
X176830669Y-93865000D01*
X176654219Y-93892946D01*
X176484306Y-93948155D01*
X176325127Y-94029262D01*
X176312205Y-94038651D01*
X176312204Y-94038651D01*
X176873554Y-94600000D01*
X176867339Y-94600000D01*
X176765606Y-94627259D01*
X176674394Y-94679920D01*
X176599920Y-94754394D01*
X176547259Y-94845606D01*
X176520000Y-94947339D01*
X176520000Y-94953553D01*
X175958651Y-94392204D01*
X175958651Y-94392205D01*
X175949262Y-94405127D01*
X175868155Y-94564306D01*
X175812946Y-94734219D01*
X175785000Y-94910668D01*
X144479988Y-94910668D01*
X151244113Y-88146543D01*
X151320774Y-88031812D01*
X151320775Y-88031811D01*
X151351707Y-87957134D01*
X151373580Y-87904329D01*
X151378315Y-87880521D01*
X151378934Y-87877411D01*
X151378934Y-87877409D01*
X151400500Y-87768993D01*
X151400500Y-78721153D01*
X164499500Y-78721153D01*
X164499500Y-78878846D01*
X164530261Y-79033489D01*
X164530264Y-79033501D01*
X164590602Y-79179172D01*
X164590609Y-79179185D01*
X164678210Y-79310288D01*
X164678213Y-79310292D01*
X164789707Y-79421786D01*
X164789711Y-79421789D01*
X164920814Y-79509390D01*
X164920827Y-79509397D01*
X165054748Y-79564868D01*
X165066503Y-79569737D01*
X165131147Y-79582595D01*
X165221849Y-79600638D01*
X165283760Y-79633023D01*
X165285339Y-79634574D01*
X165563181Y-79912416D01*
X165596666Y-79973739D01*
X165599500Y-80000097D01*
X165599500Y-89713330D01*
X165599499Y-89713348D01*
X165599499Y-89879054D01*
X165599498Y-89879054D01*
X165640423Y-90031785D01*
X165669358Y-90081900D01*
X165669359Y-90081904D01*
X165669360Y-90081904D01*
X165719479Y-90168714D01*
X165719481Y-90168717D01*
X165838349Y-90287585D01*
X165838355Y-90287590D01*
X169590256Y-94039491D01*
X169623741Y-94100814D01*
X169624192Y-94102979D01*
X169630261Y-94133492D01*
X169630263Y-94133498D01*
X169690602Y-94279172D01*
X169690609Y-94279185D01*
X169778210Y-94410288D01*
X169778213Y-94410292D01*
X169889707Y-94521786D01*
X169889711Y-94521789D01*
X170020814Y-94609390D01*
X170020827Y-94609397D01*
X170110273Y-94646446D01*
X170166503Y-94669737D01*
X170298440Y-94695981D01*
X170321153Y-94700499D01*
X170321156Y-94700500D01*
X170321158Y-94700500D01*
X170478844Y-94700500D01*
X170478845Y-94700499D01*
X170633497Y-94669737D01*
X170779179Y-94609394D01*
X170910289Y-94521789D01*
X171021789Y-94410289D01*
X171109394Y-94279179D01*
X171117226Y-94260272D01*
X171159420Y-94158405D01*
X171169737Y-94133497D01*
X171200500Y-93978842D01*
X171200500Y-93821158D01*
X171200500Y-93821155D01*
X171200499Y-93821153D01*
X171181623Y-93726260D01*
X171169737Y-93666503D01*
X171169735Y-93666498D01*
X171109397Y-93520827D01*
X171109390Y-93520814D01*
X171021789Y-93389711D01*
X171021786Y-93389707D01*
X170910292Y-93278213D01*
X170910288Y-93278210D01*
X170779185Y-93190609D01*
X170779172Y-93190602D01*
X170633501Y-93130264D01*
X170633489Y-93130261D01*
X170478845Y-93099500D01*
X170478842Y-93099500D01*
X170400098Y-93099500D01*
X170333059Y-93079815D01*
X170312417Y-93063181D01*
X166836819Y-89587583D01*
X166803334Y-89526260D01*
X166800500Y-89499902D01*
X166800500Y-85150634D01*
X169044500Y-85150634D01*
X169044500Y-85329365D01*
X169072460Y-85505898D01*
X169072460Y-85505901D01*
X169127689Y-85675878D01*
X169127691Y-85675881D01*
X169208833Y-85835132D01*
X169313889Y-85979728D01*
X169440272Y-86106111D01*
X169584868Y-86211167D01*
X169744119Y-86292309D01*
X169744121Y-86292310D01*
X169902670Y-86343825D01*
X169914103Y-86347540D01*
X170090634Y-86375500D01*
X170090635Y-86375500D01*
X170269365Y-86375500D01*
X170269366Y-86375500D01*
X170445897Y-86347540D01*
X170445900Y-86347539D01*
X170445901Y-86347539D01*
X170615878Y-86292310D01*
X170615878Y-86292309D01*
X170615881Y-86292309D01*
X170775132Y-86211167D01*
X170919728Y-86106111D01*
X171046111Y-85979728D01*
X171151167Y-85835132D01*
X171232309Y-85675881D01*
X171232310Y-85675878D01*
X171287539Y-85505901D01*
X171287539Y-85505900D01*
X171287540Y-85505897D01*
X171315500Y-85329366D01*
X171315500Y-85150634D01*
X171287540Y-84974103D01*
X171287539Y-84974099D01*
X171287539Y-84974098D01*
X171232310Y-84804121D01*
X171232308Y-84804118D01*
X171151166Y-84644867D01*
X171046111Y-84500272D01*
X170919728Y-84373889D01*
X170775132Y-84268833D01*
X170615881Y-84187691D01*
X170615878Y-84187689D01*
X170445899Y-84132460D01*
X170328209Y-84113820D01*
X170269366Y-84104500D01*
X170090634Y-84104500D01*
X170031790Y-84113820D01*
X169914101Y-84132460D01*
X169914098Y-84132460D01*
X169744121Y-84187689D01*
X169744118Y-84187691D01*
X169584867Y-84268833D01*
X169440270Y-84373890D01*
X169313890Y-84500270D01*
X169208833Y-84644867D01*
X169127691Y-84804118D01*
X169127689Y-84804121D01*
X169072460Y-84974098D01*
X169072460Y-84974101D01*
X169044500Y-85150634D01*
X166800500Y-85150634D01*
X166800500Y-82610634D01*
X169044500Y-82610634D01*
X169044500Y-82789365D01*
X169072460Y-82965898D01*
X169072460Y-82965901D01*
X169127689Y-83135878D01*
X169127691Y-83135881D01*
X169208833Y-83295132D01*
X169313889Y-83439728D01*
X169440272Y-83566111D01*
X169584868Y-83671167D01*
X169744119Y-83752309D01*
X169744121Y-83752310D01*
X169902670Y-83803825D01*
X169914103Y-83807540D01*
X170090634Y-83835500D01*
X170090635Y-83835500D01*
X170269365Y-83835500D01*
X170269366Y-83835500D01*
X170445897Y-83807540D01*
X170445900Y-83807539D01*
X170445901Y-83807539D01*
X170615878Y-83752310D01*
X170615878Y-83752309D01*
X170615881Y-83752309D01*
X170775132Y-83671167D01*
X170919728Y-83566111D01*
X171046111Y-83439728D01*
X171151167Y-83295132D01*
X171232309Y-83135881D01*
X171287540Y-82965897D01*
X171315500Y-82789366D01*
X171315500Y-82610634D01*
X171287540Y-82434103D01*
X171287539Y-82434099D01*
X171287539Y-82434098D01*
X171232310Y-82264121D01*
X171232308Y-82264118D01*
X171151166Y-82104867D01*
X171046111Y-81960272D01*
X170919728Y-81833889D01*
X170775132Y-81728833D01*
X170615881Y-81647691D01*
X170615878Y-81647689D01*
X170445899Y-81592460D01*
X170328209Y-81573820D01*
X170269366Y-81564500D01*
X170090634Y-81564500D01*
X170031790Y-81573820D01*
X169914101Y-81592460D01*
X169914098Y-81592460D01*
X169744121Y-81647689D01*
X169744118Y-81647691D01*
X169584867Y-81728833D01*
X169440270Y-81833890D01*
X169313890Y-81960270D01*
X169208833Y-82104867D01*
X169127691Y-82264118D01*
X169127689Y-82264121D01*
X169072460Y-82434098D01*
X169072460Y-82434101D01*
X169044500Y-82610634D01*
X166800500Y-82610634D01*
X166800500Y-80070634D01*
X169044500Y-80070634D01*
X169044500Y-80249365D01*
X169072460Y-80425898D01*
X169072460Y-80425901D01*
X169127689Y-80595878D01*
X169127691Y-80595881D01*
X169208833Y-80755132D01*
X169313889Y-80899728D01*
X169440272Y-81026111D01*
X169584868Y-81131167D01*
X169744119Y-81212309D01*
X169744121Y-81212310D01*
X169902670Y-81263825D01*
X169914103Y-81267540D01*
X170090634Y-81295500D01*
X170090635Y-81295500D01*
X170269365Y-81295500D01*
X170269366Y-81295500D01*
X170445897Y-81267540D01*
X170445900Y-81267539D01*
X170445901Y-81267539D01*
X170615878Y-81212310D01*
X170615878Y-81212309D01*
X170615881Y-81212309D01*
X170775132Y-81131167D01*
X170919728Y-81026111D01*
X171046111Y-80899728D01*
X171151167Y-80755132D01*
X171232309Y-80595881D01*
X171287540Y-80425897D01*
X171315500Y-80249366D01*
X171315500Y-80070634D01*
X171287540Y-79894103D01*
X171287539Y-79894099D01*
X171287539Y-79894098D01*
X171232310Y-79724121D01*
X171232308Y-79724118D01*
X171209789Y-79679920D01*
X171151167Y-79564868D01*
X171046111Y-79420272D01*
X170919728Y-79293889D01*
X170775132Y-79188833D01*
X170615881Y-79107691D01*
X170615878Y-79107689D01*
X170445899Y-79052460D01*
X170326120Y-79033489D01*
X170269366Y-79024500D01*
X170090634Y-79024500D01*
X170033880Y-79033489D01*
X169914101Y-79052460D01*
X169914098Y-79052460D01*
X169744121Y-79107689D01*
X169744118Y-79107691D01*
X169584867Y-79188833D01*
X169440270Y-79293890D01*
X169313890Y-79420270D01*
X169208833Y-79564867D01*
X169127691Y-79724118D01*
X169127689Y-79724121D01*
X169072460Y-79894098D01*
X169072460Y-79894101D01*
X169044500Y-80070634D01*
X166800500Y-80070634D01*
X166800500Y-79620945D01*
X166800498Y-79620936D01*
X166795060Y-79600638D01*
X166795023Y-79600500D01*
X166759577Y-79468215D01*
X166698246Y-79361987D01*
X166680520Y-79331284D01*
X166568716Y-79219480D01*
X166568715Y-79219479D01*
X166564385Y-79215149D01*
X166564374Y-79215139D01*
X166134574Y-78785339D01*
X166101089Y-78724016D01*
X166100638Y-78721849D01*
X166069738Y-78566510D01*
X166069737Y-78566503D01*
X166036437Y-78486109D01*
X166009397Y-78420827D01*
X166009390Y-78420814D01*
X165921789Y-78289711D01*
X165921786Y-78289707D01*
X165810292Y-78178213D01*
X165810288Y-78178210D01*
X165679185Y-78090609D01*
X165679172Y-78090602D01*
X165533501Y-78030264D01*
X165533489Y-78030261D01*
X165378845Y-77999500D01*
X165378842Y-77999500D01*
X165221158Y-77999500D01*
X165221155Y-77999500D01*
X165066510Y-78030261D01*
X165066498Y-78030264D01*
X164920827Y-78090602D01*
X164920814Y-78090609D01*
X164789711Y-78178210D01*
X164789707Y-78178213D01*
X164678213Y-78289707D01*
X164678210Y-78289711D01*
X164590609Y-78420814D01*
X164590602Y-78420827D01*
X164530264Y-78566498D01*
X164530261Y-78566510D01*
X164499500Y-78721153D01*
X151400500Y-78721153D01*
X151400500Y-70471007D01*
X151400500Y-70469817D01*
X151420185Y-70402778D01*
X151472989Y-70357023D01*
X151542147Y-70347079D01*
X151562819Y-70351886D01*
G37*
%TD.AperFunction*%
%TA.AperFunction,Conductor*%
G36*
X195442539Y-65520185D02*
G01*
X195488294Y-65572989D01*
X195499500Y-65624500D01*
X195499500Y-129375500D01*
X195479815Y-129442539D01*
X195427011Y-129488294D01*
X195375500Y-129499500D01*
X170624500Y-129499500D01*
X170557461Y-129479815D01*
X170511706Y-129427011D01*
X170500500Y-129375500D01*
X170500500Y-123503439D01*
X170520185Y-123436400D01*
X170572989Y-123390645D01*
X170642147Y-123380701D01*
X170705703Y-123409726D01*
X170727602Y-123434548D01*
X170778210Y-123510288D01*
X170778213Y-123510292D01*
X172778211Y-125510289D01*
X172882301Y-125614379D01*
X172889712Y-125621790D01*
X173020814Y-125709390D01*
X173020827Y-125709397D01*
X173166498Y-125769735D01*
X173166503Y-125769737D01*
X173321153Y-125800499D01*
X173321156Y-125800500D01*
X173321158Y-125800500D01*
X173737356Y-125800500D01*
X173804395Y-125820185D01*
X173850150Y-125872989D01*
X173860714Y-125911897D01*
X173870000Y-126002795D01*
X173870001Y-126002798D01*
X173925186Y-126169335D01*
X174017288Y-126318656D01*
X174141344Y-126442712D01*
X174290665Y-126534814D01*
X174457202Y-126589999D01*
X174559990Y-126600500D01*
X174559995Y-126600500D01*
X175016425Y-126600500D01*
X175083464Y-126620185D01*
X175129219Y-126672989D01*
X175139163Y-126742147D01*
X175110138Y-126805703D01*
X175085316Y-126827602D01*
X174949711Y-126918210D01*
X174949707Y-126918213D01*
X174838213Y-127029707D01*
X174838210Y-127029711D01*
X174750609Y-127160814D01*
X174750602Y-127160827D01*
X174690264Y-127306498D01*
X174690261Y-127306510D01*
X174659500Y-127461153D01*
X174659500Y-127618846D01*
X174690261Y-127773489D01*
X174690264Y-127773501D01*
X174750602Y-127919172D01*
X174750609Y-127919185D01*
X174838210Y-128050288D01*
X174838213Y-128050292D01*
X174949707Y-128161786D01*
X174949711Y-128161789D01*
X175080814Y-128249390D01*
X175080827Y-128249397D01*
X175226498Y-128309735D01*
X175226503Y-128309737D01*
X175381153Y-128340499D01*
X175381156Y-128340500D01*
X175381158Y-128340500D01*
X175538844Y-128340500D01*
X175538845Y-128340499D01*
X175693497Y-128309737D01*
X175839179Y-128249394D01*
X175970289Y-128161789D01*
X176081789Y-128050289D01*
X176169394Y-127919179D01*
X176229737Y-127773497D01*
X176260500Y-127618842D01*
X176260500Y-127461158D01*
X176260500Y-127461155D01*
X176260499Y-127461153D01*
X176229738Y-127306510D01*
X176229737Y-127306503D01*
X176229735Y-127306498D01*
X176169397Y-127160827D01*
X176169390Y-127160814D01*
X176081789Y-127029711D01*
X176081786Y-127029707D01*
X175970292Y-126918213D01*
X175970288Y-126918210D01*
X175834684Y-126827602D01*
X175789879Y-126773990D01*
X175781172Y-126704665D01*
X175811326Y-126641637D01*
X175870770Y-126604918D01*
X175903575Y-126600500D01*
X176360005Y-126600500D01*
X176360010Y-126600500D01*
X176462798Y-126589999D01*
X176629335Y-126534814D01*
X176778656Y-126442712D01*
X176902712Y-126318656D01*
X176902715Y-126318650D01*
X176907495Y-126313871D01*
X176968818Y-126280386D01*
X177038510Y-126285370D01*
X177068058Y-126301231D01*
X177161155Y-126368870D01*
X177267206Y-126422905D01*
X177385616Y-126483239D01*
X177385618Y-126483239D01*
X177385621Y-126483241D01*
X177625215Y-126561090D01*
X177656866Y-126566103D01*
X177658469Y-126566357D01*
X177721603Y-126596286D01*
X177758535Y-126655597D01*
X177757537Y-126725460D01*
X177718927Y-126783693D01*
X177686523Y-126803391D01*
X177620827Y-126830602D01*
X177620814Y-126830609D01*
X177489711Y-126918210D01*
X177489707Y-126918213D01*
X177378213Y-127029707D01*
X177378210Y-127029711D01*
X177290609Y-127160814D01*
X177290602Y-127160827D01*
X177230264Y-127306498D01*
X177230261Y-127306510D01*
X177199500Y-127461153D01*
X177199500Y-127618846D01*
X177230261Y-127773489D01*
X177230264Y-127773501D01*
X177290602Y-127919172D01*
X177290609Y-127919185D01*
X177378210Y-128050288D01*
X177378213Y-128050292D01*
X177489707Y-128161786D01*
X177489711Y-128161789D01*
X177620814Y-128249390D01*
X177620827Y-128249397D01*
X177766498Y-128309735D01*
X177766503Y-128309737D01*
X177921153Y-128340499D01*
X177921156Y-128340500D01*
X177921158Y-128340500D01*
X178078844Y-128340500D01*
X178078845Y-128340499D01*
X178233497Y-128309737D01*
X178379179Y-128249394D01*
X178510289Y-128161789D01*
X178621789Y-128050289D01*
X178709394Y-127919179D01*
X178769737Y-127773497D01*
X178800500Y-127618842D01*
X178800500Y-127461158D01*
X178800500Y-127461155D01*
X178800499Y-127461153D01*
X178769738Y-127306510D01*
X178769737Y-127306503D01*
X178769735Y-127306498D01*
X178709397Y-127160827D01*
X178709390Y-127160814D01*
X178621789Y-127029711D01*
X178621786Y-127029707D01*
X178510292Y-126918213D01*
X178510288Y-126918210D01*
X178379185Y-126830609D01*
X178379173Y-126830602D01*
X178313476Y-126803391D01*
X178259072Y-126759551D01*
X178237007Y-126693257D01*
X178254286Y-126625557D01*
X178305423Y-126577947D01*
X178341531Y-126566357D01*
X178374785Y-126561090D01*
X178374788Y-126561089D01*
X178614379Y-126483241D01*
X178838845Y-126368870D01*
X179042656Y-126220793D01*
X179220793Y-126042656D01*
X179232570Y-126026445D01*
X179359593Y-125851615D01*
X179414923Y-125808949D01*
X179459911Y-125800500D01*
X181737356Y-125800500D01*
X181804395Y-125820185D01*
X181850150Y-125872989D01*
X181860714Y-125911897D01*
X181870000Y-126002795D01*
X181870001Y-126002798D01*
X181925186Y-126169335D01*
X182017288Y-126318656D01*
X182141344Y-126442712D01*
X182290665Y-126534814D01*
X182457202Y-126589999D01*
X182559990Y-126600500D01*
X182559995Y-126600500D01*
X183016425Y-126600500D01*
X183083464Y-126620185D01*
X183129219Y-126672989D01*
X183139163Y-126742147D01*
X183110138Y-126805703D01*
X183085316Y-126827602D01*
X182949711Y-126918210D01*
X182949707Y-126918213D01*
X182838213Y-127029707D01*
X182838210Y-127029711D01*
X182750609Y-127160814D01*
X182750602Y-127160827D01*
X182690264Y-127306498D01*
X182690261Y-127306510D01*
X182659500Y-127461153D01*
X182659500Y-127618846D01*
X182690261Y-127773489D01*
X182690264Y-127773501D01*
X182750602Y-127919172D01*
X182750609Y-127919185D01*
X182838210Y-128050288D01*
X182838213Y-128050292D01*
X182949707Y-128161786D01*
X182949711Y-128161789D01*
X183080814Y-128249390D01*
X183080827Y-128249397D01*
X183226498Y-128309735D01*
X183226503Y-128309737D01*
X183381153Y-128340499D01*
X183381156Y-128340500D01*
X183381158Y-128340500D01*
X183538844Y-128340500D01*
X183538845Y-128340499D01*
X183693497Y-128309737D01*
X183839179Y-128249394D01*
X183970289Y-128161789D01*
X184081789Y-128050289D01*
X184169394Y-127919179D01*
X184229737Y-127773497D01*
X184260500Y-127618842D01*
X184260500Y-127461158D01*
X184260500Y-127461155D01*
X184260499Y-127461153D01*
X184229738Y-127306510D01*
X184229737Y-127306503D01*
X184229735Y-127306498D01*
X184169397Y-127160827D01*
X184169390Y-127160814D01*
X184081789Y-127029711D01*
X184081786Y-127029707D01*
X183970292Y-126918213D01*
X183970288Y-126918210D01*
X183834684Y-126827602D01*
X183789879Y-126773990D01*
X183781172Y-126704665D01*
X183811326Y-126641637D01*
X183870770Y-126604918D01*
X183903575Y-126600500D01*
X184360005Y-126600500D01*
X184360010Y-126600500D01*
X184462798Y-126589999D01*
X184629335Y-126534814D01*
X184778656Y-126442712D01*
X184902712Y-126318656D01*
X184902715Y-126318650D01*
X184907495Y-126313871D01*
X184968818Y-126280386D01*
X185038510Y-126285370D01*
X185068058Y-126301231D01*
X185161155Y-126368870D01*
X185267206Y-126422905D01*
X185385616Y-126483239D01*
X185385618Y-126483239D01*
X185385621Y-126483241D01*
X185625215Y-126561090D01*
X185656866Y-126566103D01*
X185658469Y-126566357D01*
X185721603Y-126596286D01*
X185758535Y-126655597D01*
X185757537Y-126725460D01*
X185718927Y-126783693D01*
X185686523Y-126803391D01*
X185620827Y-126830602D01*
X185620814Y-126830609D01*
X185489711Y-126918210D01*
X185489707Y-126918213D01*
X185378213Y-127029707D01*
X185378210Y-127029711D01*
X185290609Y-127160814D01*
X185290602Y-127160827D01*
X185230264Y-127306498D01*
X185230261Y-127306510D01*
X185199500Y-127461153D01*
X185199500Y-127618846D01*
X185230261Y-127773489D01*
X185230264Y-127773501D01*
X185290602Y-127919172D01*
X185290609Y-127919185D01*
X185378210Y-128050288D01*
X185378213Y-128050292D01*
X185489707Y-128161786D01*
X185489711Y-128161789D01*
X185620814Y-128249390D01*
X185620827Y-128249397D01*
X185766498Y-128309735D01*
X185766503Y-128309737D01*
X185921153Y-128340499D01*
X185921156Y-128340500D01*
X185921158Y-128340500D01*
X186078844Y-128340500D01*
X186078845Y-128340499D01*
X186233497Y-128309737D01*
X186379179Y-128249394D01*
X186510289Y-128161789D01*
X186621789Y-128050289D01*
X186709394Y-127919179D01*
X186769737Y-127773497D01*
X186800500Y-127618842D01*
X186800500Y-127461158D01*
X186800500Y-127461155D01*
X186800499Y-127461153D01*
X186769738Y-127306510D01*
X186769737Y-127306503D01*
X186769735Y-127306498D01*
X186709397Y-127160827D01*
X186709390Y-127160814D01*
X186621789Y-127029711D01*
X186621786Y-127029707D01*
X186510292Y-126918213D01*
X186510288Y-126918210D01*
X186379185Y-126830609D01*
X186379173Y-126830602D01*
X186313476Y-126803391D01*
X186259072Y-126759551D01*
X186237007Y-126693257D01*
X186254286Y-126625557D01*
X186305423Y-126577947D01*
X186341531Y-126566357D01*
X186374785Y-126561090D01*
X186374788Y-126561089D01*
X186614379Y-126483241D01*
X186838845Y-126368870D01*
X187042656Y-126220793D01*
X187220793Y-126042656D01*
X187368870Y-125838845D01*
X187483241Y-125614379D01*
X187561090Y-125374785D01*
X187600500Y-125125962D01*
X187600500Y-124874038D01*
X187561090Y-124625215D01*
X187483241Y-124385621D01*
X187483239Y-124385618D01*
X187483239Y-124385616D01*
X187441747Y-124304184D01*
X187368870Y-124161155D01*
X187315795Y-124088103D01*
X187220798Y-123957350D01*
X187220794Y-123957345D01*
X187042654Y-123779205D01*
X187042649Y-123779201D01*
X186838848Y-123631132D01*
X186838847Y-123631131D01*
X186838845Y-123631130D01*
X186768747Y-123595413D01*
X186614383Y-123516760D01*
X186374785Y-123438910D01*
X186347245Y-123434548D01*
X186125962Y-123399500D01*
X185874038Y-123399500D01*
X185807738Y-123410001D01*
X185625214Y-123438910D01*
X185385616Y-123516760D01*
X185161158Y-123631128D01*
X185161155Y-123631129D01*
X185161155Y-123631130D01*
X185068060Y-123698766D01*
X185002255Y-123722245D01*
X184934201Y-123706419D01*
X184907496Y-123686128D01*
X184778657Y-123557289D01*
X184778656Y-123557288D01*
X184629335Y-123465186D01*
X184462798Y-123410001D01*
X184462796Y-123410000D01*
X184360017Y-123399500D01*
X184360010Y-123399500D01*
X182559990Y-123399500D01*
X182559982Y-123399500D01*
X182457203Y-123410000D01*
X182457202Y-123410001D01*
X182383124Y-123434548D01*
X182290667Y-123465185D01*
X182290662Y-123465187D01*
X182141342Y-123557289D01*
X182017289Y-123681342D01*
X181925187Y-123830662D01*
X181925185Y-123830667D01*
X181870001Y-123997203D01*
X181870000Y-123997204D01*
X181860714Y-124088103D01*
X181834318Y-124152795D01*
X181777137Y-124192946D01*
X181737356Y-124199500D01*
X179459911Y-124199500D01*
X179392872Y-124179815D01*
X179359593Y-124148385D01*
X179220798Y-123957350D01*
X179220794Y-123957345D01*
X179042654Y-123779205D01*
X179042649Y-123779201D01*
X178838848Y-123631132D01*
X178838847Y-123631131D01*
X178838845Y-123631130D01*
X178768747Y-123595413D01*
X178614383Y-123516760D01*
X178374785Y-123438910D01*
X178347245Y-123434548D01*
X178125962Y-123399500D01*
X177874038Y-123399500D01*
X177807738Y-123410001D01*
X177625214Y-123438910D01*
X177385616Y-123516760D01*
X177161158Y-123631128D01*
X177161155Y-123631129D01*
X177161155Y-123631130D01*
X177068060Y-123698766D01*
X177002255Y-123722245D01*
X176934201Y-123706419D01*
X176907496Y-123686128D01*
X176778657Y-123557289D01*
X176778656Y-123557288D01*
X176629335Y-123465186D01*
X176462798Y-123410001D01*
X176462796Y-123410000D01*
X176360017Y-123399500D01*
X176360010Y-123399500D01*
X174559990Y-123399500D01*
X174559982Y-123399500D01*
X174457203Y-123410000D01*
X174457202Y-123410001D01*
X174383124Y-123434548D01*
X174290667Y-123465185D01*
X174290662Y-123465187D01*
X174141342Y-123557289D01*
X174017289Y-123681342D01*
X173925187Y-123830662D01*
X173925186Y-123830665D01*
X173870001Y-123997202D01*
X173870001Y-123997203D01*
X173870000Y-123997203D01*
X173864939Y-124046745D01*
X173838542Y-124111436D01*
X173781361Y-124151587D01*
X173711550Y-124154449D01*
X173653900Y-124121822D01*
X172236819Y-122704741D01*
X172203334Y-122643418D01*
X172200500Y-122617060D01*
X172200500Y-121990668D01*
X191865000Y-121990668D01*
X191865000Y-122169331D01*
X191892946Y-122345780D01*
X191948155Y-122515693D01*
X192029260Y-122674869D01*
X192038651Y-122687793D01*
X192038652Y-122687794D01*
X192600000Y-122126446D01*
X192600000Y-122132661D01*
X192627259Y-122234394D01*
X192679920Y-122325606D01*
X192754394Y-122400080D01*
X192845606Y-122452741D01*
X192947339Y-122480000D01*
X192953554Y-122480000D01*
X192392205Y-123041347D01*
X192392205Y-123041348D01*
X192405129Y-123050738D01*
X192564306Y-123131844D01*
X192734219Y-123187053D01*
X192910669Y-123215000D01*
X193089331Y-123215000D01*
X193265780Y-123187053D01*
X193435693Y-123131844D01*
X193594867Y-123050739D01*
X193594872Y-123050737D01*
X193607794Y-123041347D01*
X193046447Y-122480000D01*
X193052661Y-122480000D01*
X193154394Y-122452741D01*
X193245606Y-122400080D01*
X193320080Y-122325606D01*
X193372741Y-122234394D01*
X193400000Y-122132661D01*
X193400000Y-122126446D01*
X193961348Y-122687794D01*
X193970737Y-122674872D01*
X193970739Y-122674867D01*
X194051844Y-122515693D01*
X194107053Y-122345780D01*
X194135000Y-122169331D01*
X194135000Y-121990668D01*
X194107053Y-121814219D01*
X194051844Y-121644306D01*
X193970738Y-121485129D01*
X193961347Y-121472205D01*
X193400000Y-122033552D01*
X193400000Y-122027339D01*
X193372741Y-121925606D01*
X193320080Y-121834394D01*
X193245606Y-121759920D01*
X193154394Y-121707259D01*
X193052661Y-121680000D01*
X193046447Y-121680000D01*
X193607794Y-121118652D01*
X193607793Y-121118651D01*
X193594869Y-121109260D01*
X193435693Y-121028155D01*
X193265780Y-120972946D01*
X193089331Y-120945000D01*
X192910669Y-120945000D01*
X192734219Y-120972946D01*
X192564306Y-121028155D01*
X192405127Y-121109262D01*
X192392205Y-121118651D01*
X192392204Y-121118651D01*
X192953554Y-121680000D01*
X192947339Y-121680000D01*
X192845606Y-121707259D01*
X192754394Y-121759920D01*
X192679920Y-121834394D01*
X192627259Y-121925606D01*
X192600000Y-122027339D01*
X192600000Y-122033553D01*
X192038651Y-121472204D01*
X192038651Y-121472205D01*
X192029262Y-121485127D01*
X191948155Y-121644306D01*
X191892946Y-121814219D01*
X191865000Y-121990668D01*
X172200500Y-121990668D01*
X172200500Y-117078711D01*
X184649500Y-117078711D01*
X184649500Y-117321288D01*
X184681161Y-117561785D01*
X184743947Y-117796104D01*
X184816461Y-117971167D01*
X184836776Y-118020212D01*
X184958064Y-118230289D01*
X184958066Y-118230292D01*
X184958067Y-118230293D01*
X185105733Y-118422736D01*
X185105739Y-118422743D01*
X185277256Y-118594260D01*
X185277262Y-118594265D01*
X185469711Y-118741936D01*
X185679788Y-118863224D01*
X185903900Y-118956054D01*
X186138211Y-119018838D01*
X186318586Y-119042584D01*
X186378711Y-119050500D01*
X186378712Y-119050500D01*
X186621289Y-119050500D01*
X186669388Y-119044167D01*
X186861789Y-119018838D01*
X187096100Y-118956054D01*
X187320212Y-118863224D01*
X187530289Y-118741936D01*
X187722738Y-118594265D01*
X187894265Y-118422738D01*
X188041936Y-118230289D01*
X188163224Y-118020212D01*
X188256054Y-117796100D01*
X188318838Y-117561789D01*
X188350500Y-117321288D01*
X188350500Y-117078712D01*
X188328373Y-116910634D01*
X191864500Y-116910634D01*
X191864500Y-117089365D01*
X191892460Y-117265898D01*
X191892460Y-117265901D01*
X191947689Y-117435878D01*
X191947691Y-117435881D01*
X192028833Y-117595132D01*
X192133889Y-117739728D01*
X192260272Y-117866111D01*
X192404868Y-117971167D01*
X192564119Y-118052309D01*
X192564121Y-118052310D01*
X192722670Y-118103825D01*
X192734103Y-118107540D01*
X192910634Y-118135500D01*
X192910635Y-118135500D01*
X193089365Y-118135500D01*
X193089366Y-118135500D01*
X193265897Y-118107540D01*
X193265900Y-118107539D01*
X193265901Y-118107539D01*
X193435878Y-118052310D01*
X193435878Y-118052309D01*
X193435881Y-118052309D01*
X193595132Y-117971167D01*
X193739728Y-117866111D01*
X193866111Y-117739728D01*
X193971167Y-117595132D01*
X194052309Y-117435881D01*
X194052310Y-117435878D01*
X194107539Y-117265901D01*
X194107539Y-117265900D01*
X194107540Y-117265897D01*
X194135500Y-117089366D01*
X194135500Y-116910634D01*
X194107540Y-116734103D01*
X194107539Y-116734099D01*
X194107539Y-116734098D01*
X194052310Y-116564121D01*
X194052308Y-116564118D01*
X193971166Y-116404867D01*
X193866111Y-116260272D01*
X193739728Y-116133889D01*
X193595132Y-116028833D01*
X193435881Y-115947691D01*
X193435878Y-115947689D01*
X193265899Y-115892460D01*
X193148209Y-115873820D01*
X193089366Y-115864500D01*
X192910634Y-115864500D01*
X192851790Y-115873820D01*
X192734101Y-115892460D01*
X192734098Y-115892460D01*
X192564121Y-115947689D01*
X192564118Y-115947691D01*
X192404867Y-116028833D01*
X192260270Y-116133890D01*
X192133890Y-116260270D01*
X192028833Y-116404867D01*
X191947691Y-116564118D01*
X191947689Y-116564121D01*
X191892460Y-116734098D01*
X191892460Y-116734101D01*
X191864500Y-116910634D01*
X188328373Y-116910634D01*
X188318838Y-116838211D01*
X188256054Y-116603900D01*
X188163224Y-116379788D01*
X188041936Y-116169711D01*
X187894265Y-115977262D01*
X187894260Y-115977256D01*
X187722743Y-115805739D01*
X187722736Y-115805733D01*
X187530293Y-115658067D01*
X187530292Y-115658066D01*
X187530289Y-115658064D01*
X187320212Y-115536776D01*
X187320205Y-115536773D01*
X187096104Y-115443947D01*
X186861785Y-115381161D01*
X186621289Y-115349500D01*
X186621288Y-115349500D01*
X186378712Y-115349500D01*
X186378711Y-115349500D01*
X186138214Y-115381161D01*
X185903895Y-115443947D01*
X185679794Y-115536773D01*
X185679785Y-115536777D01*
X185469706Y-115658067D01*
X185277263Y-115805733D01*
X185277256Y-115805739D01*
X185105739Y-115977256D01*
X185105733Y-115977263D01*
X184958067Y-116169706D01*
X184836777Y-116379785D01*
X184836773Y-116379794D01*
X184743947Y-116603895D01*
X184681161Y-116838214D01*
X184649500Y-117078711D01*
X172200500Y-117078711D01*
X172200500Y-108421155D01*
X172200499Y-108421153D01*
X172169738Y-108266510D01*
X172169737Y-108266503D01*
X172169735Y-108266498D01*
X172109397Y-108120827D01*
X172109390Y-108120814D01*
X172021790Y-107989712D01*
X172021789Y-107989711D01*
X171910289Y-107878211D01*
X169752598Y-105720520D01*
X167410292Y-103378213D01*
X167410288Y-103378210D01*
X167279185Y-103290609D01*
X167279172Y-103290602D01*
X167133501Y-103230264D01*
X167133489Y-103230261D01*
X166978845Y-103199500D01*
X166978842Y-103199500D01*
X160856701Y-103199500D01*
X160789662Y-103179815D01*
X160769020Y-103163181D01*
X160739729Y-103133890D01*
X160735722Y-103130979D01*
X160595132Y-103028833D01*
X160435881Y-102947691D01*
X160435878Y-102947689D01*
X160265899Y-102892460D01*
X160148209Y-102873820D01*
X160089366Y-102864500D01*
X159910634Y-102864500D01*
X159851790Y-102873820D01*
X159734101Y-102892460D01*
X159734098Y-102892460D01*
X159564121Y-102947689D01*
X159564118Y-102947691D01*
X159404867Y-103028833D01*
X159260270Y-103133890D01*
X159260269Y-103133891D01*
X159130980Y-103263181D01*
X159069657Y-103296666D01*
X159043299Y-103299500D01*
X158416701Y-103299500D01*
X158349662Y-103279815D01*
X158329020Y-103263181D01*
X158199729Y-103133890D01*
X158195722Y-103130979D01*
X158055132Y-103028833D01*
X157895881Y-102947691D01*
X157895878Y-102947689D01*
X157725899Y-102892460D01*
X157608209Y-102873820D01*
X157549366Y-102864500D01*
X157370634Y-102864500D01*
X157311790Y-102873820D01*
X157194101Y-102892460D01*
X157194098Y-102892460D01*
X157024121Y-102947689D01*
X157024118Y-102947691D01*
X156864867Y-103028833D01*
X156720270Y-103133890D01*
X156720269Y-103133891D01*
X156590980Y-103263181D01*
X156529657Y-103296666D01*
X156503299Y-103299500D01*
X155876701Y-103299500D01*
X155809662Y-103279815D01*
X155789020Y-103263181D01*
X155659729Y-103133890D01*
X155655722Y-103130979D01*
X155515132Y-103028833D01*
X155355881Y-102947691D01*
X155355878Y-102947689D01*
X155185899Y-102892460D01*
X155068209Y-102873820D01*
X155009366Y-102864500D01*
X154830634Y-102864500D01*
X154771790Y-102873820D01*
X154654101Y-102892460D01*
X154654098Y-102892460D01*
X154484121Y-102947689D01*
X154484118Y-102947691D01*
X154324867Y-103028833D01*
X154180270Y-103133890D01*
X154053890Y-103260270D01*
X153948833Y-103404867D01*
X153867691Y-103564118D01*
X153867689Y-103564121D01*
X153812460Y-103734098D01*
X153812460Y-103734101D01*
X153809150Y-103755000D01*
X153784500Y-103910634D01*
X153784500Y-104089366D01*
X153786264Y-104100501D01*
X153812460Y-104265898D01*
X153812460Y-104265901D01*
X153867689Y-104435878D01*
X153867691Y-104435881D01*
X153948833Y-104595132D01*
X154053889Y-104739728D01*
X154180272Y-104866111D01*
X154324868Y-104971167D01*
X154484119Y-105052309D01*
X154484121Y-105052310D01*
X154642670Y-105103825D01*
X154654103Y-105107540D01*
X154830634Y-105135500D01*
X154830635Y-105135500D01*
X155009365Y-105135500D01*
X155009366Y-105135500D01*
X155185897Y-105107540D01*
X155185900Y-105107539D01*
X155185901Y-105107539D01*
X155355878Y-105052310D01*
X155355878Y-105052309D01*
X155355881Y-105052309D01*
X155515132Y-104971167D01*
X155659728Y-104866111D01*
X155786111Y-104739728D01*
X155786111Y-104739727D01*
X155789020Y-104736819D01*
X155850343Y-104703334D01*
X155876701Y-104700500D01*
X156503299Y-104700500D01*
X156570338Y-104720185D01*
X156590980Y-104736819D01*
X156593889Y-104739728D01*
X156720272Y-104866111D01*
X156864868Y-104971167D01*
X157024119Y-105052309D01*
X157024121Y-105052310D01*
X157182670Y-105103825D01*
X157194103Y-105107540D01*
X157370634Y-105135500D01*
X157370635Y-105135500D01*
X157549365Y-105135500D01*
X157549366Y-105135500D01*
X157725897Y-105107540D01*
X157725900Y-105107539D01*
X157725901Y-105107539D01*
X157895878Y-105052310D01*
X157895878Y-105052309D01*
X157895881Y-105052309D01*
X158055132Y-104971167D01*
X158199728Y-104866111D01*
X158326111Y-104739728D01*
X158326111Y-104739727D01*
X158329020Y-104736819D01*
X158390343Y-104703334D01*
X158416701Y-104700500D01*
X159043299Y-104700500D01*
X159110338Y-104720185D01*
X159130980Y-104736819D01*
X159133889Y-104739728D01*
X159260272Y-104866111D01*
X159404868Y-104971167D01*
X159564119Y-105052309D01*
X159564121Y-105052310D01*
X159722670Y-105103825D01*
X159734103Y-105107540D01*
X159910634Y-105135500D01*
X159910635Y-105135500D01*
X160089365Y-105135500D01*
X160089366Y-105135500D01*
X160265897Y-105107540D01*
X160265900Y-105107539D01*
X160265901Y-105107539D01*
X160435878Y-105052310D01*
X160435878Y-105052309D01*
X160435881Y-105052309D01*
X160595132Y-104971167D01*
X160739728Y-104866111D01*
X160769020Y-104836819D01*
X160830343Y-104803334D01*
X160856701Y-104800500D01*
X166517060Y-104800500D01*
X166584099Y-104820185D01*
X166604741Y-104836819D01*
X170055741Y-108287819D01*
X170089226Y-108349142D01*
X170084242Y-108418834D01*
X170042370Y-108474767D01*
X169976906Y-108499184D01*
X169968060Y-108499500D01*
X135624500Y-108499500D01*
X135557461Y-108479815D01*
X135511706Y-108427011D01*
X135500500Y-108375500D01*
X135500500Y-106450668D01*
X138545000Y-106450668D01*
X138545000Y-106629331D01*
X138572946Y-106805780D01*
X138628155Y-106975693D01*
X138709260Y-107134869D01*
X138718651Y-107147793D01*
X138718652Y-107147794D01*
X139280000Y-106586446D01*
X139280000Y-106592661D01*
X139307259Y-106694394D01*
X139359920Y-106785606D01*
X139434394Y-106860080D01*
X139525606Y-106912741D01*
X139627339Y-106940000D01*
X139633554Y-106940000D01*
X139072205Y-107501347D01*
X139072205Y-107501348D01*
X139085129Y-107510738D01*
X139244306Y-107591844D01*
X139414219Y-107647053D01*
X139590669Y-107675000D01*
X139769331Y-107675000D01*
X139945780Y-107647053D01*
X140115693Y-107591844D01*
X140274867Y-107510739D01*
X140274872Y-107510737D01*
X140287794Y-107501347D01*
X139726447Y-106940000D01*
X139732661Y-106940000D01*
X139834394Y-106912741D01*
X139925606Y-106860080D01*
X140000080Y-106785606D01*
X140052741Y-106694394D01*
X140080000Y-106592661D01*
X140080000Y-106586446D01*
X140641348Y-107147794D01*
X140650737Y-107134872D01*
X140650739Y-107134867D01*
X140731844Y-106975693D01*
X140787053Y-106805780D01*
X140815000Y-106629331D01*
X140815000Y-106450668D01*
X141085000Y-106450668D01*
X141085000Y-106629331D01*
X141112946Y-106805780D01*
X141168155Y-106975693D01*
X141249260Y-107134869D01*
X141258651Y-107147793D01*
X141258652Y-107147794D01*
X141820000Y-106586446D01*
X141820000Y-106592661D01*
X141847259Y-106694394D01*
X141899920Y-106785606D01*
X141974394Y-106860080D01*
X142065606Y-106912741D01*
X142167339Y-106940000D01*
X142173554Y-106940000D01*
X141612205Y-107501347D01*
X141612205Y-107501348D01*
X141625129Y-107510738D01*
X141784306Y-107591844D01*
X141954219Y-107647053D01*
X142130669Y-107675000D01*
X142309331Y-107675000D01*
X142485780Y-107647053D01*
X142655693Y-107591844D01*
X142814867Y-107510739D01*
X142814872Y-107510737D01*
X142827794Y-107501347D01*
X142266447Y-106940000D01*
X142272661Y-106940000D01*
X142374394Y-106912741D01*
X142465606Y-106860080D01*
X142540080Y-106785606D01*
X142592741Y-106694394D01*
X142620000Y-106592661D01*
X142620000Y-106586446D01*
X143181348Y-107147794D01*
X143190737Y-107134872D01*
X143190739Y-107134867D01*
X143271844Y-106975693D01*
X143327053Y-106805780D01*
X143355000Y-106629331D01*
X143355000Y-106450668D01*
X143625000Y-106450668D01*
X143625000Y-106629331D01*
X143652946Y-106805780D01*
X143708155Y-106975693D01*
X143789260Y-107134869D01*
X143798651Y-107147793D01*
X143798652Y-107147794D01*
X144360000Y-106586446D01*
X144360000Y-106592661D01*
X144387259Y-106694394D01*
X144439920Y-106785606D01*
X144514394Y-106860080D01*
X144605606Y-106912741D01*
X144707339Y-106940000D01*
X144713554Y-106940000D01*
X144152205Y-107501347D01*
X144152205Y-107501348D01*
X144165129Y-107510738D01*
X144324306Y-107591844D01*
X144494219Y-107647053D01*
X144670669Y-107675000D01*
X144849331Y-107675000D01*
X145025780Y-107647053D01*
X145195693Y-107591844D01*
X145354867Y-107510739D01*
X145354872Y-107510737D01*
X145367794Y-107501347D01*
X144806447Y-106940000D01*
X144812661Y-106940000D01*
X144914394Y-106912741D01*
X145005606Y-106860080D01*
X145080080Y-106785606D01*
X145132741Y-106694394D01*
X145160000Y-106592661D01*
X145160000Y-106586446D01*
X145721348Y-107147794D01*
X145730737Y-107134872D01*
X145730739Y-107134867D01*
X145811844Y-106975693D01*
X145867053Y-106805780D01*
X145895000Y-106629331D01*
X145895000Y-106450668D01*
X146165000Y-106450668D01*
X146165000Y-106629331D01*
X146192946Y-106805780D01*
X146248155Y-106975693D01*
X146329260Y-107134869D01*
X146338651Y-107147793D01*
X146338652Y-107147794D01*
X146900000Y-106586446D01*
X146900000Y-106592661D01*
X146927259Y-106694394D01*
X146979920Y-106785606D01*
X147054394Y-106860080D01*
X147145606Y-106912741D01*
X147247339Y-106940000D01*
X147253554Y-106940000D01*
X146692205Y-107501347D01*
X146692205Y-107501348D01*
X146705129Y-107510738D01*
X146864306Y-107591844D01*
X147034219Y-107647053D01*
X147210669Y-107675000D01*
X147389331Y-107675000D01*
X147565780Y-107647053D01*
X147735693Y-107591844D01*
X147894867Y-107510739D01*
X147894872Y-107510737D01*
X147907794Y-107501347D01*
X147346447Y-106940000D01*
X147352661Y-106940000D01*
X147454394Y-106912741D01*
X147545606Y-106860080D01*
X147620080Y-106785606D01*
X147672741Y-106694394D01*
X147700000Y-106592661D01*
X147700000Y-106586446D01*
X148261348Y-107147794D01*
X148270737Y-107134872D01*
X148270739Y-107134867D01*
X148351844Y-106975693D01*
X148407053Y-106805780D01*
X148435000Y-106629331D01*
X148435000Y-106450668D01*
X148705000Y-106450668D01*
X148705000Y-106629331D01*
X148732946Y-106805780D01*
X148788155Y-106975693D01*
X148869260Y-107134869D01*
X148878651Y-107147793D01*
X148878652Y-107147794D01*
X149440000Y-106586446D01*
X149440000Y-106592661D01*
X149467259Y-106694394D01*
X149519920Y-106785606D01*
X149594394Y-106860080D01*
X149685606Y-106912741D01*
X149787339Y-106940000D01*
X149793554Y-106940000D01*
X149232205Y-107501347D01*
X149232205Y-107501348D01*
X149245129Y-107510738D01*
X149404306Y-107591844D01*
X149574219Y-107647053D01*
X149750669Y-107675000D01*
X149929331Y-107675000D01*
X150105780Y-107647053D01*
X150275693Y-107591844D01*
X150434867Y-107510739D01*
X150434872Y-107510737D01*
X150447794Y-107501347D01*
X149886447Y-106940000D01*
X149892661Y-106940000D01*
X149994394Y-106912741D01*
X150085606Y-106860080D01*
X150160080Y-106785606D01*
X150212741Y-106694394D01*
X150240000Y-106592661D01*
X150240000Y-106586446D01*
X150801348Y-107147794D01*
X150810737Y-107134872D01*
X150810739Y-107134867D01*
X150891844Y-106975693D01*
X150947053Y-106805780D01*
X150975000Y-106629331D01*
X150975000Y-106450668D01*
X151245000Y-106450668D01*
X151245000Y-106629331D01*
X151272946Y-106805780D01*
X151328155Y-106975693D01*
X151409260Y-107134869D01*
X151418651Y-107147793D01*
X151418652Y-107147794D01*
X151980000Y-106586446D01*
X151980000Y-106592661D01*
X152007259Y-106694394D01*
X152059920Y-106785606D01*
X152134394Y-106860080D01*
X152225606Y-106912741D01*
X152327339Y-106940000D01*
X152333554Y-106940000D01*
X151772205Y-107501347D01*
X151772205Y-107501348D01*
X151785129Y-107510738D01*
X151944306Y-107591844D01*
X152114219Y-107647053D01*
X152290669Y-107675000D01*
X152469331Y-107675000D01*
X152645780Y-107647053D01*
X152815693Y-107591844D01*
X152974867Y-107510739D01*
X152974872Y-107510737D01*
X152987794Y-107501347D01*
X152426447Y-106940000D01*
X152432661Y-106940000D01*
X152534394Y-106912741D01*
X152625606Y-106860080D01*
X152700080Y-106785606D01*
X152752741Y-106694394D01*
X152780000Y-106592661D01*
X152780000Y-106586446D01*
X153341348Y-107147794D01*
X153350737Y-107134872D01*
X153350739Y-107134867D01*
X153431844Y-106975693D01*
X153487053Y-106805780D01*
X153515000Y-106629331D01*
X153515000Y-106450668D01*
X153785000Y-106450668D01*
X153785000Y-106629331D01*
X153812946Y-106805780D01*
X153868155Y-106975693D01*
X153949260Y-107134869D01*
X153958651Y-107147793D01*
X153958652Y-107147794D01*
X154520000Y-106586446D01*
X154520000Y-106592661D01*
X154547259Y-106694394D01*
X154599920Y-106785606D01*
X154674394Y-106860080D01*
X154765606Y-106912741D01*
X154867339Y-106940000D01*
X154873554Y-106940000D01*
X154312205Y-107501347D01*
X154312205Y-107501348D01*
X154325129Y-107510738D01*
X154484306Y-107591844D01*
X154654219Y-107647053D01*
X154830669Y-107675000D01*
X155009331Y-107675000D01*
X155185780Y-107647053D01*
X155355693Y-107591844D01*
X155514867Y-107510739D01*
X155514872Y-107510737D01*
X155527794Y-107501347D01*
X154966447Y-106940000D01*
X154972661Y-106940000D01*
X155074394Y-106912741D01*
X155165606Y-106860080D01*
X155240080Y-106785606D01*
X155292741Y-106694394D01*
X155320000Y-106592661D01*
X155320000Y-106586446D01*
X155881348Y-107147794D01*
X155890737Y-107134872D01*
X155890739Y-107134867D01*
X155971844Y-106975693D01*
X156027053Y-106805780D01*
X156055000Y-106629331D01*
X156055000Y-106450668D01*
X156325000Y-106450668D01*
X156325000Y-106629331D01*
X156352946Y-106805780D01*
X156408155Y-106975693D01*
X156489260Y-107134869D01*
X156498651Y-107147793D01*
X156498652Y-107147794D01*
X157060000Y-106586446D01*
X157060000Y-106592661D01*
X157087259Y-106694394D01*
X157139920Y-106785606D01*
X157214394Y-106860080D01*
X157305606Y-106912741D01*
X157407339Y-106940000D01*
X157413554Y-106940000D01*
X156852205Y-107501347D01*
X156852205Y-107501348D01*
X156865129Y-107510738D01*
X157024306Y-107591844D01*
X157194219Y-107647053D01*
X157370669Y-107675000D01*
X157549331Y-107675000D01*
X157725780Y-107647053D01*
X157895693Y-107591844D01*
X158054867Y-107510739D01*
X158054872Y-107510737D01*
X158067794Y-107501347D01*
X157506447Y-106940000D01*
X157512661Y-106940000D01*
X157614394Y-106912741D01*
X157705606Y-106860080D01*
X157780080Y-106785606D01*
X157832741Y-106694394D01*
X157860000Y-106592661D01*
X157860000Y-106586446D01*
X158421347Y-107147794D01*
X158430737Y-107134872D01*
X158430739Y-107134867D01*
X158511844Y-106975693D01*
X158567053Y-106805780D01*
X158595000Y-106629331D01*
X158595000Y-106450668D01*
X158865000Y-106450668D01*
X158865000Y-106629331D01*
X158892946Y-106805780D01*
X158948155Y-106975693D01*
X159029260Y-107134869D01*
X159038651Y-107147793D01*
X159038652Y-107147794D01*
X159600000Y-106586446D01*
X159600000Y-106592661D01*
X159627259Y-106694394D01*
X159679920Y-106785606D01*
X159754394Y-106860080D01*
X159845606Y-106912741D01*
X159947339Y-106940000D01*
X159953554Y-106940000D01*
X159392205Y-107501347D01*
X159392205Y-107501348D01*
X159405129Y-107510738D01*
X159564306Y-107591844D01*
X159734219Y-107647053D01*
X159910669Y-107675000D01*
X160089331Y-107675000D01*
X160265780Y-107647053D01*
X160435693Y-107591844D01*
X160594867Y-107510739D01*
X160594872Y-107510737D01*
X160607794Y-107501347D01*
X160046447Y-106940000D01*
X160052661Y-106940000D01*
X160154394Y-106912741D01*
X160245606Y-106860080D01*
X160320080Y-106785606D01*
X160372741Y-106694394D01*
X160400000Y-106592661D01*
X160400000Y-106586446D01*
X160961348Y-107147794D01*
X160970737Y-107134872D01*
X160970739Y-107134867D01*
X161051844Y-106975693D01*
X161107053Y-106805780D01*
X161135000Y-106629331D01*
X161135000Y-106450668D01*
X161107053Y-106274219D01*
X161051844Y-106104306D01*
X160970738Y-105945129D01*
X160961347Y-105932205D01*
X160400000Y-106493552D01*
X160400000Y-106487339D01*
X160372741Y-106385606D01*
X160320080Y-106294394D01*
X160245606Y-106219920D01*
X160154394Y-106167259D01*
X160052661Y-106140000D01*
X160046447Y-106140000D01*
X160607794Y-105578652D01*
X160607793Y-105578651D01*
X160594869Y-105569260D01*
X160435693Y-105488155D01*
X160265780Y-105432946D01*
X160089331Y-105405000D01*
X159910669Y-105405000D01*
X159734219Y-105432946D01*
X159564306Y-105488155D01*
X159405127Y-105569262D01*
X159392205Y-105578651D01*
X159392204Y-105578651D01*
X159953554Y-106140000D01*
X159947339Y-106140000D01*
X159845606Y-106167259D01*
X159754394Y-106219920D01*
X159679920Y-106294394D01*
X159627259Y-106385606D01*
X159600000Y-106487339D01*
X159600000Y-106493553D01*
X159038651Y-105932204D01*
X159038651Y-105932205D01*
X159029262Y-105945127D01*
X158948155Y-106104306D01*
X158892946Y-106274219D01*
X158865000Y-106450668D01*
X158595000Y-106450668D01*
X158567053Y-106274219D01*
X158511844Y-106104306D01*
X158430738Y-105945129D01*
X158421347Y-105932205D01*
X157860000Y-106493552D01*
X157860000Y-106487339D01*
X157832741Y-106385606D01*
X157780080Y-106294394D01*
X157705606Y-106219920D01*
X157614394Y-106167259D01*
X157512661Y-106140000D01*
X157506447Y-106140000D01*
X158067794Y-105578651D01*
X158054869Y-105569260D01*
X157895693Y-105488155D01*
X157725780Y-105432946D01*
X157549331Y-105405000D01*
X157370669Y-105405000D01*
X157194219Y-105432946D01*
X157024306Y-105488155D01*
X156865127Y-105569262D01*
X156852205Y-105578651D01*
X156852204Y-105578651D01*
X157413554Y-106140000D01*
X157407339Y-106140000D01*
X157305606Y-106167259D01*
X157214394Y-106219920D01*
X157139920Y-106294394D01*
X157087259Y-106385606D01*
X157060000Y-106487339D01*
X157060000Y-106493553D01*
X156498651Y-105932204D01*
X156498651Y-105932205D01*
X156489262Y-105945127D01*
X156408155Y-106104306D01*
X156352946Y-106274219D01*
X156325000Y-106450668D01*
X156055000Y-106450668D01*
X156027053Y-106274219D01*
X155971844Y-106104306D01*
X155890738Y-105945129D01*
X155881347Y-105932205D01*
X155320000Y-106493552D01*
X155320000Y-106487339D01*
X155292741Y-106385606D01*
X155240080Y-106294394D01*
X155165606Y-106219920D01*
X155074394Y-106167259D01*
X154972661Y-106140000D01*
X154966447Y-106140000D01*
X155527794Y-105578651D01*
X155514869Y-105569260D01*
X155355693Y-105488155D01*
X155185780Y-105432946D01*
X155009331Y-105405000D01*
X154830669Y-105405000D01*
X154654219Y-105432946D01*
X154484306Y-105488155D01*
X154325127Y-105569262D01*
X154312205Y-105578651D01*
X154312204Y-105578651D01*
X154873554Y-106140000D01*
X154867339Y-106140000D01*
X154765606Y-106167259D01*
X154674394Y-106219920D01*
X154599920Y-106294394D01*
X154547259Y-106385606D01*
X154520000Y-106487339D01*
X154520000Y-106493553D01*
X153958651Y-105932204D01*
X153958651Y-105932205D01*
X153949262Y-105945127D01*
X153868155Y-106104306D01*
X153812946Y-106274219D01*
X153785000Y-106450668D01*
X153515000Y-106450668D01*
X153487053Y-106274219D01*
X153431844Y-106104306D01*
X153350738Y-105945129D01*
X153341347Y-105932205D01*
X152780000Y-106493552D01*
X152780000Y-106487339D01*
X152752741Y-106385606D01*
X152700080Y-106294394D01*
X152625606Y-106219920D01*
X152534394Y-106167259D01*
X152432661Y-106140000D01*
X152426447Y-106140000D01*
X152987794Y-105578651D01*
X152974869Y-105569260D01*
X152815693Y-105488155D01*
X152645780Y-105432946D01*
X152469331Y-105405000D01*
X152290669Y-105405000D01*
X152114219Y-105432946D01*
X151944306Y-105488155D01*
X151785127Y-105569262D01*
X151772205Y-105578651D01*
X151772204Y-105578651D01*
X152333554Y-106140000D01*
X152327339Y-106140000D01*
X152225606Y-106167259D01*
X152134394Y-106219920D01*
X152059920Y-106294394D01*
X152007259Y-106385606D01*
X151980000Y-106487339D01*
X151980000Y-106493553D01*
X151418651Y-105932204D01*
X151418651Y-105932205D01*
X151409262Y-105945127D01*
X151328155Y-106104306D01*
X151272946Y-106274219D01*
X151245000Y-106450668D01*
X150975000Y-106450668D01*
X150947053Y-106274219D01*
X150891844Y-106104306D01*
X150810738Y-105945129D01*
X150801347Y-105932205D01*
X150240000Y-106493552D01*
X150240000Y-106487339D01*
X150212741Y-106385606D01*
X150160080Y-106294394D01*
X150085606Y-106219920D01*
X149994394Y-106167259D01*
X149892661Y-106140000D01*
X149886447Y-106140000D01*
X150447794Y-105578651D01*
X150434869Y-105569260D01*
X150275693Y-105488155D01*
X150105780Y-105432946D01*
X149929331Y-105405000D01*
X149750669Y-105405000D01*
X149574219Y-105432946D01*
X149404306Y-105488155D01*
X149245127Y-105569262D01*
X149232205Y-105578651D01*
X149232204Y-105578651D01*
X149793554Y-106140000D01*
X149787339Y-106140000D01*
X149685606Y-106167259D01*
X149594394Y-106219920D01*
X149519920Y-106294394D01*
X149467259Y-106385606D01*
X149440000Y-106487339D01*
X149440000Y-106493553D01*
X148878651Y-105932204D01*
X148878651Y-105932205D01*
X148869262Y-105945127D01*
X148788155Y-106104306D01*
X148732946Y-106274219D01*
X148705000Y-106450668D01*
X148435000Y-106450668D01*
X148407053Y-106274219D01*
X148351844Y-106104306D01*
X148270738Y-105945129D01*
X148261347Y-105932205D01*
X147700000Y-106493552D01*
X147700000Y-106487339D01*
X147672741Y-106385606D01*
X147620080Y-106294394D01*
X147545606Y-106219920D01*
X147454394Y-106167259D01*
X147352661Y-106140000D01*
X147346447Y-106140000D01*
X147907794Y-105578651D01*
X147894869Y-105569260D01*
X147735693Y-105488155D01*
X147565780Y-105432946D01*
X147389331Y-105405000D01*
X147210669Y-105405000D01*
X147034219Y-105432946D01*
X146864306Y-105488155D01*
X146705127Y-105569262D01*
X146692205Y-105578651D01*
X146692204Y-105578651D01*
X147253554Y-106140000D01*
X147247339Y-106140000D01*
X147145606Y-106167259D01*
X147054394Y-106219920D01*
X146979920Y-106294394D01*
X146927259Y-106385606D01*
X146900000Y-106487339D01*
X146900000Y-106493553D01*
X146338651Y-105932204D01*
X146338651Y-105932205D01*
X146329262Y-105945127D01*
X146248155Y-106104306D01*
X146192946Y-106274219D01*
X146165000Y-106450668D01*
X145895000Y-106450668D01*
X145867053Y-106274219D01*
X145811844Y-106104306D01*
X145730738Y-105945129D01*
X145721347Y-105932205D01*
X145160000Y-106493552D01*
X145160000Y-106487339D01*
X145132741Y-106385606D01*
X145080080Y-106294394D01*
X145005606Y-106219920D01*
X144914394Y-106167259D01*
X144812661Y-106140000D01*
X144806447Y-106140000D01*
X145367794Y-105578651D01*
X145354869Y-105569260D01*
X145195693Y-105488155D01*
X145025780Y-105432946D01*
X144849331Y-105405000D01*
X144670669Y-105405000D01*
X144494219Y-105432946D01*
X144324306Y-105488155D01*
X144165127Y-105569262D01*
X144152205Y-105578651D01*
X144152204Y-105578651D01*
X144713554Y-106140000D01*
X144707339Y-106140000D01*
X144605606Y-106167259D01*
X144514394Y-106219920D01*
X144439920Y-106294394D01*
X144387259Y-106385606D01*
X144360000Y-106487339D01*
X144360000Y-106493553D01*
X143798651Y-105932204D01*
X143798651Y-105932205D01*
X143789262Y-105945127D01*
X143708155Y-106104306D01*
X143652946Y-106274219D01*
X143625000Y-106450668D01*
X143355000Y-106450668D01*
X143327053Y-106274219D01*
X143271844Y-106104306D01*
X143190738Y-105945129D01*
X143181347Y-105932205D01*
X142620000Y-106493552D01*
X142620000Y-106487339D01*
X142592741Y-106385606D01*
X142540080Y-106294394D01*
X142465606Y-106219920D01*
X142374394Y-106167259D01*
X142272661Y-106140000D01*
X142266447Y-106140000D01*
X142827794Y-105578651D01*
X142814869Y-105569260D01*
X142655693Y-105488155D01*
X142485780Y-105432946D01*
X142309331Y-105405000D01*
X142130669Y-105405000D01*
X141954219Y-105432946D01*
X141784306Y-105488155D01*
X141625127Y-105569262D01*
X141612205Y-105578651D01*
X141612204Y-105578651D01*
X142173554Y-106140000D01*
X142167339Y-106140000D01*
X142065606Y-106167259D01*
X141974394Y-106219920D01*
X141899920Y-106294394D01*
X141847259Y-106385606D01*
X141820000Y-106487339D01*
X141820000Y-106493553D01*
X141258651Y-105932204D01*
X141258651Y-105932205D01*
X141249262Y-105945127D01*
X141168155Y-106104306D01*
X141112946Y-106274219D01*
X141085000Y-106450668D01*
X140815000Y-106450668D01*
X140787053Y-106274219D01*
X140731844Y-106104306D01*
X140650738Y-105945129D01*
X140641347Y-105932205D01*
X140080000Y-106493552D01*
X140080000Y-106487339D01*
X140052741Y-106385606D01*
X140000080Y-106294394D01*
X139925606Y-106219920D01*
X139834394Y-106167259D01*
X139732661Y-106140000D01*
X139726447Y-106140000D01*
X140287794Y-105578651D01*
X140274869Y-105569260D01*
X140115693Y-105488155D01*
X139945780Y-105432946D01*
X139769331Y-105405000D01*
X139590669Y-105405000D01*
X139414219Y-105432946D01*
X139244306Y-105488155D01*
X139085127Y-105569262D01*
X139072205Y-105578651D01*
X139072204Y-105578651D01*
X139633554Y-106140000D01*
X139627339Y-106140000D01*
X139525606Y-106167259D01*
X139434394Y-106219920D01*
X139359920Y-106294394D01*
X139307259Y-106385606D01*
X139280000Y-106487339D01*
X139280000Y-106493553D01*
X138718651Y-105932204D01*
X138718651Y-105932205D01*
X138709262Y-105945127D01*
X138628155Y-106104306D01*
X138572946Y-106274219D01*
X138545000Y-106450668D01*
X135500500Y-106450668D01*
X135500500Y-103910634D01*
X138544500Y-103910634D01*
X138544500Y-104089366D01*
X138546264Y-104100501D01*
X138572460Y-104265898D01*
X138572460Y-104265901D01*
X138627689Y-104435878D01*
X138627691Y-104435881D01*
X138708833Y-104595132D01*
X138813889Y-104739728D01*
X138940272Y-104866111D01*
X139084868Y-104971167D01*
X139244119Y-105052309D01*
X139244121Y-105052310D01*
X139402670Y-105103825D01*
X139414103Y-105107540D01*
X139590634Y-105135500D01*
X139590635Y-105135500D01*
X139769365Y-105135500D01*
X139769366Y-105135500D01*
X139945897Y-105107540D01*
X139945900Y-105107539D01*
X139945901Y-105107539D01*
X140115878Y-105052310D01*
X140115878Y-105052309D01*
X140115881Y-105052309D01*
X140275132Y-104971167D01*
X140419728Y-104866111D01*
X140546111Y-104739728D01*
X140546111Y-104739727D01*
X140549020Y-104736819D01*
X140610343Y-104703334D01*
X140636701Y-104700500D01*
X141263299Y-104700500D01*
X141330338Y-104720185D01*
X141350980Y-104736819D01*
X141353889Y-104739728D01*
X141480272Y-104866111D01*
X141624868Y-104971167D01*
X141784119Y-105052309D01*
X141784121Y-105052310D01*
X141942670Y-105103825D01*
X141954103Y-105107540D01*
X142130634Y-105135500D01*
X142130635Y-105135500D01*
X142309365Y-105135500D01*
X142309366Y-105135500D01*
X142485897Y-105107540D01*
X142485900Y-105107539D01*
X142485901Y-105107539D01*
X142655878Y-105052310D01*
X142655878Y-105052309D01*
X142655881Y-105052309D01*
X142815132Y-104971167D01*
X142959728Y-104866111D01*
X143086111Y-104739728D01*
X143086111Y-104739727D01*
X143089020Y-104736819D01*
X143150343Y-104703334D01*
X143176701Y-104700500D01*
X143803299Y-104700500D01*
X143870338Y-104720185D01*
X143890980Y-104736819D01*
X143893889Y-104739728D01*
X144020272Y-104866111D01*
X144164868Y-104971167D01*
X144324119Y-105052309D01*
X144324121Y-105052310D01*
X144482670Y-105103825D01*
X144494103Y-105107540D01*
X144670634Y-105135500D01*
X144670635Y-105135500D01*
X144849365Y-105135500D01*
X144849366Y-105135500D01*
X145025897Y-105107540D01*
X145025900Y-105107539D01*
X145025901Y-105107539D01*
X145195878Y-105052310D01*
X145195878Y-105052309D01*
X145195881Y-105052309D01*
X145355132Y-104971167D01*
X145499728Y-104866111D01*
X145626111Y-104739728D01*
X145731167Y-104595132D01*
X145812309Y-104435881D01*
X145867540Y-104265897D01*
X145895500Y-104089366D01*
X145895500Y-103910634D01*
X146164500Y-103910634D01*
X146164500Y-104089366D01*
X146166264Y-104100501D01*
X146192460Y-104265898D01*
X146192460Y-104265901D01*
X146247689Y-104435878D01*
X146247691Y-104435881D01*
X146328833Y-104595132D01*
X146433889Y-104739728D01*
X146560272Y-104866111D01*
X146704868Y-104971167D01*
X146864119Y-105052309D01*
X146864121Y-105052310D01*
X147022670Y-105103825D01*
X147034103Y-105107540D01*
X147210634Y-105135500D01*
X147210635Y-105135500D01*
X147389365Y-105135500D01*
X147389366Y-105135500D01*
X147565897Y-105107540D01*
X147565900Y-105107539D01*
X147565901Y-105107539D01*
X147735878Y-105052310D01*
X147735878Y-105052309D01*
X147735881Y-105052309D01*
X147895132Y-104971167D01*
X148039728Y-104866111D01*
X148166111Y-104739728D01*
X148166111Y-104739727D01*
X148169020Y-104736819D01*
X148230343Y-104703334D01*
X148256701Y-104700500D01*
X148883299Y-104700500D01*
X148950338Y-104720185D01*
X148970980Y-104736819D01*
X148973889Y-104739728D01*
X149100272Y-104866111D01*
X149244868Y-104971167D01*
X149404119Y-105052309D01*
X149404121Y-105052310D01*
X149562670Y-105103825D01*
X149574103Y-105107540D01*
X149750634Y-105135500D01*
X149750635Y-105135500D01*
X149929365Y-105135500D01*
X149929366Y-105135500D01*
X150105897Y-105107540D01*
X150105900Y-105107539D01*
X150105901Y-105107539D01*
X150275878Y-105052310D01*
X150275878Y-105052309D01*
X150275881Y-105052309D01*
X150435132Y-104971167D01*
X150579728Y-104866111D01*
X150706111Y-104739728D01*
X150706111Y-104739727D01*
X150709020Y-104736819D01*
X150770343Y-104703334D01*
X150796701Y-104700500D01*
X151423299Y-104700500D01*
X151490338Y-104720185D01*
X151510980Y-104736819D01*
X151513889Y-104739728D01*
X151640272Y-104866111D01*
X151784868Y-104971167D01*
X151944119Y-105052309D01*
X151944121Y-105052310D01*
X152102670Y-105103825D01*
X152114103Y-105107540D01*
X152290634Y-105135500D01*
X152290635Y-105135500D01*
X152469365Y-105135500D01*
X152469366Y-105135500D01*
X152645897Y-105107540D01*
X152645900Y-105107539D01*
X152645901Y-105107539D01*
X152815878Y-105052310D01*
X152815878Y-105052309D01*
X152815881Y-105052309D01*
X152975132Y-104971167D01*
X153119728Y-104866111D01*
X153246111Y-104739728D01*
X153351167Y-104595132D01*
X153432309Y-104435881D01*
X153487540Y-104265897D01*
X153515500Y-104089366D01*
X153515500Y-103910634D01*
X153487540Y-103734103D01*
X153487539Y-103734099D01*
X153487539Y-103734098D01*
X153432310Y-103564121D01*
X153432308Y-103564118D01*
X153425180Y-103550127D01*
X153351167Y-103404868D01*
X153246111Y-103260272D01*
X153119728Y-103133889D01*
X152975132Y-103028833D01*
X152815881Y-102947691D01*
X152815878Y-102947689D01*
X152645899Y-102892460D01*
X152528209Y-102873820D01*
X152469366Y-102864500D01*
X152290634Y-102864500D01*
X152231790Y-102873820D01*
X152114101Y-102892460D01*
X152114098Y-102892460D01*
X151944121Y-102947689D01*
X151944118Y-102947691D01*
X151784867Y-103028833D01*
X151640270Y-103133890D01*
X151640269Y-103133891D01*
X151510980Y-103263181D01*
X151449657Y-103296666D01*
X151423299Y-103299500D01*
X150796701Y-103299500D01*
X150729662Y-103279815D01*
X150709020Y-103263181D01*
X150579729Y-103133890D01*
X150575722Y-103130979D01*
X150435132Y-103028833D01*
X150275881Y-102947691D01*
X150275878Y-102947689D01*
X150105899Y-102892460D01*
X149988209Y-102873820D01*
X149929366Y-102864500D01*
X149750634Y-102864500D01*
X149691790Y-102873820D01*
X149574101Y-102892460D01*
X149574098Y-102892460D01*
X149404121Y-102947689D01*
X149404118Y-102947691D01*
X149244867Y-103028833D01*
X149100270Y-103133890D01*
X149100269Y-103133891D01*
X148970980Y-103263181D01*
X148909657Y-103296666D01*
X148883299Y-103299500D01*
X148256701Y-103299500D01*
X148189662Y-103279815D01*
X148169020Y-103263181D01*
X148039729Y-103133890D01*
X148035722Y-103130979D01*
X147895132Y-103028833D01*
X147735881Y-102947691D01*
X147735878Y-102947689D01*
X147565899Y-102892460D01*
X147448209Y-102873820D01*
X147389366Y-102864500D01*
X147210634Y-102864500D01*
X147151790Y-102873820D01*
X147034101Y-102892460D01*
X147034098Y-102892460D01*
X146864121Y-102947689D01*
X146864118Y-102947691D01*
X146704867Y-103028833D01*
X146560270Y-103133890D01*
X146433890Y-103260270D01*
X146328833Y-103404867D01*
X146247691Y-103564118D01*
X146247689Y-103564121D01*
X146192460Y-103734098D01*
X146192460Y-103734101D01*
X146189150Y-103755000D01*
X146164500Y-103910634D01*
X145895500Y-103910634D01*
X145867540Y-103734103D01*
X145867539Y-103734099D01*
X145867539Y-103734098D01*
X145812310Y-103564121D01*
X145812308Y-103564118D01*
X145805180Y-103550127D01*
X145731167Y-103404868D01*
X145626111Y-103260272D01*
X145499728Y-103133889D01*
X145411613Y-103069869D01*
X145368948Y-103014539D01*
X145360500Y-102969552D01*
X145360500Y-102240097D01*
X145380185Y-102173058D01*
X145396819Y-102152416D01*
X146728083Y-100821153D01*
X169899500Y-100821153D01*
X169899500Y-100978846D01*
X169930261Y-101133489D01*
X169930264Y-101133501D01*
X169990602Y-101279172D01*
X169990609Y-101279185D01*
X170078602Y-101410874D01*
X170099480Y-101477551D01*
X170099500Y-101479765D01*
X170099500Y-103413330D01*
X170099499Y-103413348D01*
X170099499Y-103579054D01*
X170099498Y-103579054D01*
X170140422Y-103731782D01*
X170140424Y-103731787D01*
X170143628Y-103737336D01*
X170143629Y-103737338D01*
X170219477Y-103868712D01*
X170219481Y-103868717D01*
X170338349Y-103987585D01*
X170338355Y-103987590D01*
X172315139Y-105964374D01*
X172315149Y-105964385D01*
X172319479Y-105968715D01*
X172319480Y-105968716D01*
X172431284Y-106080520D01*
X172431286Y-106080521D01*
X172431290Y-106080524D01*
X172534307Y-106140000D01*
X172568216Y-106159577D01*
X172680019Y-106189534D01*
X172720942Y-106200500D01*
X172720943Y-106200500D01*
X179013331Y-106200500D01*
X179013347Y-106200501D01*
X179020943Y-106200501D01*
X179179054Y-106200501D01*
X179179057Y-106200501D01*
X179331785Y-106159577D01*
X179381904Y-106130639D01*
X179468716Y-106080520D01*
X179580520Y-105968716D01*
X179580520Y-105968714D01*
X179590728Y-105958507D01*
X179590730Y-105958504D01*
X179818506Y-105730728D01*
X179818511Y-105730724D01*
X179828714Y-105720520D01*
X179828716Y-105720520D01*
X179940520Y-105608716D01*
X179991196Y-105520942D01*
X180019577Y-105471785D01*
X180060501Y-105319057D01*
X180060501Y-105160943D01*
X180060501Y-105153348D01*
X180060500Y-105153330D01*
X180060500Y-103650446D01*
X180080185Y-103583407D01*
X180111609Y-103550132D01*
X180199728Y-103486111D01*
X180326111Y-103359728D01*
X180431167Y-103215132D01*
X180512309Y-103055881D01*
X180525742Y-103014539D01*
X180567539Y-102885901D01*
X180567539Y-102885900D01*
X180567540Y-102885897D01*
X180595500Y-102709366D01*
X180595500Y-102530634D01*
X180864500Y-102530634D01*
X180864500Y-102709366D01*
X180872180Y-102757853D01*
X180892460Y-102885898D01*
X180892460Y-102885901D01*
X180947689Y-103055878D01*
X180947691Y-103055881D01*
X181028833Y-103215132D01*
X181133889Y-103359728D01*
X181260272Y-103486111D01*
X181404868Y-103591167D01*
X181564119Y-103672309D01*
X181564121Y-103672310D01*
X181722670Y-103723825D01*
X181734103Y-103727540D01*
X181910634Y-103755500D01*
X181910635Y-103755500D01*
X182089364Y-103755500D01*
X182089366Y-103755500D01*
X182196941Y-103738461D01*
X182266232Y-103747415D01*
X182304018Y-103773253D01*
X182395139Y-103864374D01*
X182395149Y-103864385D01*
X182399479Y-103868715D01*
X182399480Y-103868716D01*
X182511284Y-103980520D01*
X182598095Y-104030639D01*
X182598097Y-104030641D01*
X182636151Y-104052611D01*
X182648215Y-104059577D01*
X182800943Y-104100501D01*
X182800946Y-104100501D01*
X182966653Y-104100501D01*
X182966669Y-104100500D01*
X183613331Y-104100500D01*
X183613347Y-104100501D01*
X183620943Y-104100501D01*
X183779054Y-104100501D01*
X183779057Y-104100501D01*
X183931785Y-104059577D01*
X183981904Y-104030639D01*
X184068716Y-103980520D01*
X184180520Y-103868716D01*
X184180520Y-103868714D01*
X184190728Y-103858507D01*
X184190730Y-103858504D01*
X185558506Y-102490728D01*
X185558511Y-102490724D01*
X185568714Y-102480520D01*
X185568716Y-102480520D01*
X185680520Y-102368716D01*
X185759577Y-102231784D01*
X185800500Y-102079057D01*
X185800500Y-100990668D01*
X191865000Y-100990668D01*
X191865000Y-101169331D01*
X191892946Y-101345780D01*
X191948155Y-101515693D01*
X192029260Y-101674869D01*
X192038651Y-101687793D01*
X192038652Y-101687794D01*
X192600000Y-101126446D01*
X192600000Y-101132661D01*
X192627259Y-101234394D01*
X192679920Y-101325606D01*
X192754394Y-101400080D01*
X192845606Y-101452741D01*
X192947339Y-101480000D01*
X192953554Y-101480000D01*
X192392205Y-102041347D01*
X192392205Y-102041348D01*
X192405129Y-102050738D01*
X192564306Y-102131844D01*
X192734219Y-102187053D01*
X192910669Y-102215000D01*
X193089331Y-102215000D01*
X193265780Y-102187053D01*
X193435693Y-102131844D01*
X193594867Y-102050739D01*
X193594872Y-102050737D01*
X193607794Y-102041347D01*
X193046447Y-101480000D01*
X193052661Y-101480000D01*
X193154394Y-101452741D01*
X193245606Y-101400080D01*
X193320080Y-101325606D01*
X193372741Y-101234394D01*
X193400000Y-101132661D01*
X193400000Y-101126446D01*
X193961348Y-101687794D01*
X193970737Y-101674872D01*
X193970739Y-101674867D01*
X194051844Y-101515693D01*
X194107053Y-101345780D01*
X194135000Y-101169331D01*
X194135000Y-100990668D01*
X194107053Y-100814219D01*
X194051844Y-100644306D01*
X193970738Y-100485129D01*
X193961347Y-100472205D01*
X193400000Y-101033552D01*
X193400000Y-101027339D01*
X193372741Y-100925606D01*
X193320080Y-100834394D01*
X193245606Y-100759920D01*
X193154394Y-100707259D01*
X193052661Y-100680000D01*
X193046447Y-100680000D01*
X193607794Y-100118652D01*
X193607793Y-100118651D01*
X193594869Y-100109260D01*
X193435693Y-100028155D01*
X193265780Y-99972946D01*
X193089331Y-99945000D01*
X192910669Y-99945000D01*
X192734219Y-99972946D01*
X192564306Y-100028155D01*
X192405127Y-100109262D01*
X192392205Y-100118651D01*
X192392204Y-100118651D01*
X192953554Y-100680000D01*
X192947339Y-100680000D01*
X192845606Y-100707259D01*
X192754394Y-100759920D01*
X192679920Y-100834394D01*
X192627259Y-100925606D01*
X192600000Y-101027339D01*
X192600000Y-101033553D01*
X192038651Y-100472204D01*
X192038651Y-100472205D01*
X192029262Y-100485127D01*
X191948155Y-100644306D01*
X191892946Y-100814219D01*
X191865000Y-100990668D01*
X185800500Y-100990668D01*
X185800500Y-95910634D01*
X191864500Y-95910634D01*
X191864500Y-96089365D01*
X191892460Y-96265898D01*
X191892460Y-96265901D01*
X191947689Y-96435878D01*
X191947691Y-96435881D01*
X192028833Y-96595132D01*
X192133889Y-96739728D01*
X192260272Y-96866111D01*
X192404868Y-96971167D01*
X192564119Y-97052309D01*
X192564121Y-97052310D01*
X192722670Y-97103825D01*
X192734103Y-97107540D01*
X192910634Y-97135500D01*
X192910635Y-97135500D01*
X193089365Y-97135500D01*
X193089366Y-97135500D01*
X193265897Y-97107540D01*
X193265900Y-97107539D01*
X193265901Y-97107539D01*
X193435878Y-97052310D01*
X193435878Y-97052309D01*
X193435881Y-97052309D01*
X193595132Y-96971167D01*
X193739728Y-96866111D01*
X193866111Y-96739728D01*
X193971167Y-96595132D01*
X194052309Y-96435881D01*
X194107540Y-96265897D01*
X194135500Y-96089366D01*
X194135500Y-95910634D01*
X194107540Y-95734103D01*
X194107539Y-95734099D01*
X194107539Y-95734098D01*
X194052310Y-95564121D01*
X194052308Y-95564118D01*
X193986969Y-95435881D01*
X193971167Y-95404868D01*
X193866111Y-95260272D01*
X193739728Y-95133889D01*
X193595132Y-95028833D01*
X193435881Y-94947691D01*
X193435878Y-94947689D01*
X193265899Y-94892460D01*
X193148209Y-94873820D01*
X193089366Y-94864500D01*
X192910634Y-94864500D01*
X192851790Y-94873820D01*
X192734101Y-94892460D01*
X192734098Y-94892460D01*
X192564121Y-94947689D01*
X192564118Y-94947691D01*
X192404867Y-95028833D01*
X192260270Y-95133890D01*
X192133890Y-95260270D01*
X192028833Y-95404867D01*
X191947691Y-95564118D01*
X191947689Y-95564121D01*
X191892460Y-95734098D01*
X191892460Y-95734101D01*
X191864500Y-95910634D01*
X185800500Y-95910634D01*
X185800500Y-89820943D01*
X185759577Y-89668216D01*
X185713024Y-89587583D01*
X185680524Y-89531290D01*
X185680521Y-89531286D01*
X185680520Y-89531284D01*
X185568716Y-89419480D01*
X185568715Y-89419479D01*
X185564385Y-89415149D01*
X185564374Y-89415139D01*
X184336819Y-88187584D01*
X184303334Y-88126261D01*
X184300500Y-88099903D01*
X184300500Y-86012600D01*
X184320185Y-85945561D01*
X184372989Y-85899806D01*
X184442147Y-85889862D01*
X184505703Y-85918887D01*
X184524816Y-85939712D01*
X184553889Y-85979728D01*
X184680272Y-86106111D01*
X184824868Y-86211167D01*
X184984119Y-86292309D01*
X184984121Y-86292310D01*
X185142670Y-86343825D01*
X185154103Y-86347540D01*
X185330634Y-86375500D01*
X185330635Y-86375500D01*
X185509365Y-86375500D01*
X185509366Y-86375500D01*
X185685897Y-86347540D01*
X185685900Y-86347539D01*
X185685901Y-86347539D01*
X185855878Y-86292310D01*
X185855878Y-86292309D01*
X185855881Y-86292309D01*
X186015132Y-86211167D01*
X186159728Y-86106111D01*
X186286111Y-85979728D01*
X186391167Y-85835132D01*
X186472309Y-85675881D01*
X186472310Y-85675878D01*
X186527539Y-85505901D01*
X186527539Y-85505900D01*
X186527540Y-85505897D01*
X186555500Y-85329366D01*
X186555500Y-85150634D01*
X186527540Y-84974103D01*
X186527539Y-84974099D01*
X186527539Y-84974098D01*
X186472310Y-84804121D01*
X186472308Y-84804118D01*
X186391166Y-84644867D01*
X186286111Y-84500272D01*
X186159728Y-84373889D01*
X186015132Y-84268833D01*
X185855881Y-84187691D01*
X185855878Y-84187689D01*
X185685899Y-84132460D01*
X185568209Y-84113820D01*
X185509366Y-84104500D01*
X185330634Y-84104500D01*
X185271790Y-84113820D01*
X185154101Y-84132460D01*
X185154098Y-84132460D01*
X184984121Y-84187689D01*
X184984118Y-84187691D01*
X184824867Y-84268833D01*
X184680270Y-84373890D01*
X184553890Y-84500270D01*
X184524818Y-84540285D01*
X184469487Y-84582951D01*
X184399874Y-84588929D01*
X184338079Y-84556323D01*
X184303722Y-84495484D01*
X184300500Y-84467399D01*
X184300500Y-83472600D01*
X184320185Y-83405561D01*
X184372989Y-83359806D01*
X184442147Y-83349862D01*
X184505703Y-83378887D01*
X184524816Y-83399712D01*
X184553889Y-83439728D01*
X184680272Y-83566111D01*
X184824868Y-83671167D01*
X184984119Y-83752309D01*
X184984121Y-83752310D01*
X185142670Y-83803825D01*
X185154103Y-83807540D01*
X185330634Y-83835500D01*
X185330635Y-83835500D01*
X185509365Y-83835500D01*
X185509366Y-83835500D01*
X185685897Y-83807540D01*
X185685900Y-83807539D01*
X185685901Y-83807539D01*
X185855878Y-83752310D01*
X185855878Y-83752309D01*
X185855881Y-83752309D01*
X186015132Y-83671167D01*
X186159728Y-83566111D01*
X186286111Y-83439728D01*
X186391167Y-83295132D01*
X186472309Y-83135881D01*
X186527540Y-82965897D01*
X186555500Y-82789366D01*
X186555500Y-82610634D01*
X186527540Y-82434103D01*
X186527539Y-82434099D01*
X186527539Y-82434098D01*
X186472310Y-82264121D01*
X186472308Y-82264118D01*
X186391166Y-82104867D01*
X186286111Y-81960272D01*
X186159728Y-81833889D01*
X186015132Y-81728833D01*
X185855881Y-81647691D01*
X185855878Y-81647689D01*
X185685899Y-81592460D01*
X185568209Y-81573820D01*
X185509366Y-81564500D01*
X185330634Y-81564500D01*
X185271790Y-81573820D01*
X185154101Y-81592460D01*
X185154098Y-81592460D01*
X184984121Y-81647689D01*
X184984118Y-81647691D01*
X184824867Y-81728833D01*
X184680270Y-81833890D01*
X184553890Y-81960270D01*
X184524818Y-82000285D01*
X184469487Y-82042951D01*
X184399874Y-82048929D01*
X184338079Y-82016323D01*
X184303722Y-81955484D01*
X184300500Y-81927399D01*
X184300500Y-80932600D01*
X184320185Y-80865561D01*
X184372989Y-80819806D01*
X184442147Y-80809862D01*
X184505703Y-80838887D01*
X184524816Y-80859712D01*
X184553889Y-80899728D01*
X184680272Y-81026111D01*
X184824868Y-81131167D01*
X184984119Y-81212309D01*
X184984121Y-81212310D01*
X185142670Y-81263825D01*
X185154103Y-81267540D01*
X185330634Y-81295500D01*
X185330635Y-81295500D01*
X185509365Y-81295500D01*
X185509366Y-81295500D01*
X185685897Y-81267540D01*
X185685900Y-81267539D01*
X185685901Y-81267539D01*
X185855878Y-81212310D01*
X185855878Y-81212309D01*
X185855881Y-81212309D01*
X186015132Y-81131167D01*
X186159728Y-81026111D01*
X186286111Y-80899728D01*
X186391167Y-80755132D01*
X186472309Y-80595881D01*
X186527540Y-80425897D01*
X186555500Y-80249366D01*
X186555500Y-80070634D01*
X186530164Y-79910668D01*
X191865000Y-79910668D01*
X191865000Y-80089331D01*
X191892946Y-80265780D01*
X191948155Y-80435693D01*
X192029260Y-80594869D01*
X192038651Y-80607793D01*
X192038652Y-80607794D01*
X192600000Y-80046446D01*
X192600000Y-80052661D01*
X192627259Y-80154394D01*
X192679920Y-80245606D01*
X192754394Y-80320080D01*
X192845606Y-80372741D01*
X192947339Y-80400000D01*
X192953554Y-80400000D01*
X192392205Y-80961347D01*
X192392205Y-80961348D01*
X192405129Y-80970738D01*
X192564306Y-81051844D01*
X192734219Y-81107053D01*
X192910669Y-81135000D01*
X193089331Y-81135000D01*
X193265780Y-81107053D01*
X193435693Y-81051844D01*
X193594867Y-80970739D01*
X193594872Y-80970737D01*
X193607794Y-80961347D01*
X193046447Y-80400000D01*
X193052661Y-80400000D01*
X193154394Y-80372741D01*
X193245606Y-80320080D01*
X193320080Y-80245606D01*
X193372741Y-80154394D01*
X193400000Y-80052661D01*
X193400000Y-80046446D01*
X193961348Y-80607794D01*
X193970737Y-80594872D01*
X193970739Y-80594867D01*
X194051844Y-80435693D01*
X194107053Y-80265780D01*
X194135000Y-80089331D01*
X194135000Y-79910668D01*
X194107053Y-79734219D01*
X194051844Y-79564306D01*
X193970738Y-79405129D01*
X193961347Y-79392205D01*
X193400000Y-79953552D01*
X193400000Y-79947339D01*
X193372741Y-79845606D01*
X193320080Y-79754394D01*
X193245606Y-79679920D01*
X193154394Y-79627259D01*
X193052661Y-79600000D01*
X193046447Y-79600000D01*
X193607794Y-79038652D01*
X193607793Y-79038651D01*
X193594869Y-79029260D01*
X193435693Y-78948155D01*
X193265780Y-78892946D01*
X193089331Y-78865000D01*
X192910669Y-78865000D01*
X192734219Y-78892946D01*
X192564306Y-78948155D01*
X192405127Y-79029262D01*
X192392205Y-79038651D01*
X192392204Y-79038651D01*
X192953554Y-79600000D01*
X192947339Y-79600000D01*
X192845606Y-79627259D01*
X192754394Y-79679920D01*
X192679920Y-79754394D01*
X192627259Y-79845606D01*
X192600000Y-79947339D01*
X192600000Y-79953553D01*
X192038651Y-79392204D01*
X192038651Y-79392205D01*
X192029262Y-79405127D01*
X191948155Y-79564306D01*
X191892946Y-79734219D01*
X191865000Y-79910668D01*
X186530164Y-79910668D01*
X186527540Y-79894103D01*
X186527538Y-79894098D01*
X186527538Y-79894095D01*
X186472310Y-79724121D01*
X186472308Y-79724118D01*
X186449789Y-79679920D01*
X186391167Y-79564868D01*
X186286111Y-79420272D01*
X186278020Y-79412181D01*
X186244535Y-79350858D01*
X186249519Y-79281166D01*
X186291391Y-79225233D01*
X186356855Y-79200816D01*
X186365701Y-79200500D01*
X190813331Y-79200500D01*
X190813347Y-79200501D01*
X190820943Y-79200501D01*
X190979054Y-79200501D01*
X190979057Y-79200501D01*
X191131785Y-79159577D01*
X191181904Y-79130639D01*
X191268716Y-79080520D01*
X191380520Y-78968716D01*
X191380520Y-78968714D01*
X191390724Y-78958511D01*
X191390728Y-78958506D01*
X193358506Y-76990728D01*
X193358511Y-76990724D01*
X193368714Y-76980520D01*
X193368716Y-76980520D01*
X193480520Y-76868716D01*
X193559577Y-76731784D01*
X193600500Y-76579057D01*
X193600500Y-75950446D01*
X193620185Y-75883407D01*
X193651609Y-75850132D01*
X193739728Y-75786111D01*
X193866111Y-75659728D01*
X193971167Y-75515132D01*
X194052309Y-75355881D01*
X194074132Y-75288716D01*
X194107539Y-75185901D01*
X194107539Y-75185900D01*
X194107540Y-75185897D01*
X194135500Y-75009366D01*
X194135500Y-74830634D01*
X194107540Y-74654103D01*
X194107539Y-74654099D01*
X194107539Y-74654098D01*
X194052310Y-74484121D01*
X194052308Y-74484118D01*
X194049956Y-74479500D01*
X193971167Y-74324868D01*
X193866111Y-74180272D01*
X193739728Y-74053889D01*
X193595132Y-73948833D01*
X193435881Y-73867691D01*
X193435878Y-73867689D01*
X193265899Y-73812460D01*
X193148209Y-73793820D01*
X193089366Y-73784500D01*
X192910634Y-73784500D01*
X192851790Y-73793820D01*
X192734101Y-73812460D01*
X192734098Y-73812460D01*
X192564121Y-73867689D01*
X192564118Y-73867691D01*
X192404867Y-73948833D01*
X192260270Y-74053890D01*
X192133890Y-74180270D01*
X192028833Y-74324867D01*
X191947691Y-74484118D01*
X191947689Y-74484121D01*
X191892460Y-74654098D01*
X191892460Y-74654101D01*
X191864500Y-74830634D01*
X191864500Y-75009365D01*
X191892460Y-75185898D01*
X191892460Y-75185901D01*
X191947689Y-75355878D01*
X191947691Y-75355881D01*
X192028833Y-75515132D01*
X192133889Y-75659728D01*
X192260272Y-75786111D01*
X192348388Y-75850131D01*
X192391051Y-75905457D01*
X192399500Y-75950446D01*
X192399500Y-76199903D01*
X192379815Y-76266942D01*
X192363181Y-76287584D01*
X190687584Y-77963181D01*
X190626261Y-77996666D01*
X190599903Y-77999500D01*
X186700097Y-77999500D01*
X186633058Y-77979815D01*
X186612416Y-77963181D01*
X186573253Y-77924018D01*
X186539768Y-77862695D01*
X186538461Y-77816943D01*
X186555500Y-77709366D01*
X186555500Y-77530634D01*
X186527540Y-77354103D01*
X186527539Y-77354099D01*
X186527539Y-77354098D01*
X186472310Y-77184121D01*
X186472308Y-77184118D01*
X186459804Y-77159576D01*
X186391167Y-77024868D01*
X186286111Y-76880272D01*
X186159728Y-76753889D01*
X186015132Y-76648833D01*
X185855881Y-76567691D01*
X185855878Y-76567689D01*
X185685899Y-76512460D01*
X185560393Y-76492582D01*
X185509366Y-76484500D01*
X185330634Y-76484500D01*
X185279607Y-76492582D01*
X185154101Y-76512460D01*
X185154098Y-76512460D01*
X184984121Y-76567689D01*
X184984118Y-76567691D01*
X184824867Y-76648833D01*
X184680270Y-76753890D01*
X184553890Y-76880270D01*
X184524818Y-76920285D01*
X184469487Y-76962951D01*
X184399874Y-76968929D01*
X184338079Y-76936323D01*
X184303722Y-76875484D01*
X184300500Y-76847399D01*
X184300500Y-75900097D01*
X184320185Y-75833058D01*
X184336819Y-75812416D01*
X184356806Y-75792429D01*
X184418129Y-75758944D01*
X184487821Y-75763928D01*
X184543754Y-75805800D01*
X184544797Y-75807215D01*
X184553889Y-75819728D01*
X184680272Y-75946111D01*
X184824868Y-76051167D01*
X184984119Y-76132309D01*
X184984121Y-76132310D01*
X185142670Y-76183825D01*
X185154103Y-76187540D01*
X185330634Y-76215500D01*
X185330635Y-76215500D01*
X185509365Y-76215500D01*
X185509366Y-76215500D01*
X185685897Y-76187540D01*
X185685900Y-76187539D01*
X185685901Y-76187539D01*
X185855878Y-76132310D01*
X185855878Y-76132309D01*
X185855881Y-76132309D01*
X186015132Y-76051167D01*
X186159728Y-75946111D01*
X186286111Y-75819728D01*
X186391167Y-75675132D01*
X186472309Y-75515881D01*
X186489045Y-75464374D01*
X186527539Y-75345901D01*
X186527539Y-75345900D01*
X186527540Y-75345897D01*
X186555500Y-75169366D01*
X186555500Y-74990634D01*
X186527540Y-74814103D01*
X186527539Y-74814099D01*
X186527539Y-74814098D01*
X186472310Y-74644121D01*
X186472308Y-74644118D01*
X186466025Y-74631785D01*
X186391167Y-74484868D01*
X186286111Y-74340272D01*
X186159728Y-74213889D01*
X186015132Y-74108833D01*
X185855881Y-74027691D01*
X185855878Y-74027689D01*
X185685899Y-73972460D01*
X185536723Y-73948833D01*
X185509366Y-73944500D01*
X185330634Y-73944500D01*
X185303277Y-73948833D01*
X185154101Y-73972460D01*
X185154098Y-73972460D01*
X184984121Y-74027689D01*
X184984118Y-74027691D01*
X184824867Y-74108833D01*
X184680270Y-74213890D01*
X184553890Y-74340270D01*
X184489870Y-74428386D01*
X184434539Y-74471052D01*
X184389552Y-74479500D01*
X184299057Y-74479500D01*
X184140943Y-74479500D01*
X183988215Y-74520423D01*
X183988214Y-74520423D01*
X183988212Y-74520424D01*
X183988209Y-74520425D01*
X183938096Y-74549359D01*
X183938095Y-74549360D01*
X183903454Y-74569360D01*
X183851285Y-74599479D01*
X183851282Y-74599481D01*
X183219479Y-75231284D01*
X183196173Y-75271652D01*
X183186322Y-75288716D01*
X183140423Y-75368215D01*
X183099499Y-75520943D01*
X183099499Y-75520945D01*
X183099499Y-75689046D01*
X183099500Y-75689059D01*
X183099500Y-88313330D01*
X183099499Y-88313348D01*
X183099499Y-88479054D01*
X183099498Y-88479054D01*
X183140423Y-88631785D01*
X183169358Y-88681900D01*
X183169359Y-88681904D01*
X183169360Y-88681904D01*
X183219479Y-88768714D01*
X183219481Y-88768717D01*
X183338349Y-88887585D01*
X183338355Y-88887590D01*
X184563181Y-90112416D01*
X184596666Y-90173739D01*
X184599500Y-90200097D01*
X184599500Y-101699903D01*
X184579815Y-101766942D01*
X184563181Y-101787584D01*
X183487584Y-102863181D01*
X183426261Y-102896666D01*
X183399903Y-102899500D01*
X183250571Y-102899500D01*
X183183532Y-102879815D01*
X183137777Y-102827011D01*
X183127833Y-102757853D01*
X183128086Y-102756170D01*
X183135500Y-102709366D01*
X183135500Y-102530634D01*
X183107540Y-102354103D01*
X183107539Y-102354099D01*
X183107539Y-102354098D01*
X183052310Y-102184121D01*
X183052308Y-102184118D01*
X183036156Y-102152416D01*
X182971167Y-102024868D01*
X182866111Y-101880272D01*
X182739728Y-101753889D01*
X182595132Y-101648833D01*
X182435881Y-101567691D01*
X182435878Y-101567689D01*
X182265899Y-101512460D01*
X182148209Y-101493820D01*
X182089366Y-101484500D01*
X181910634Y-101484500D01*
X181851790Y-101493820D01*
X181734101Y-101512460D01*
X181734098Y-101512460D01*
X181564121Y-101567689D01*
X181564118Y-101567691D01*
X181404867Y-101648833D01*
X181260270Y-101753890D01*
X181133890Y-101880270D01*
X181028833Y-102024867D01*
X180947691Y-102184118D01*
X180947689Y-102184121D01*
X180892460Y-102354098D01*
X180892460Y-102354101D01*
X180872437Y-102480520D01*
X180864500Y-102530634D01*
X180595500Y-102530634D01*
X180567540Y-102354103D01*
X180567539Y-102354099D01*
X180567539Y-102354098D01*
X180512310Y-102184121D01*
X180512308Y-102184118D01*
X180496156Y-102152416D01*
X180431167Y-102024868D01*
X180326111Y-101880272D01*
X180199728Y-101753889D01*
X180055132Y-101648833D01*
X179895881Y-101567691D01*
X179895878Y-101567689D01*
X179725899Y-101512460D01*
X179608209Y-101493820D01*
X179549366Y-101484500D01*
X179370634Y-101484500D01*
X179311790Y-101493820D01*
X179194101Y-101512460D01*
X179194098Y-101512460D01*
X179024121Y-101567689D01*
X179024118Y-101567691D01*
X178864867Y-101648833D01*
X178720270Y-101753890D01*
X178593890Y-101880270D01*
X178488833Y-102024867D01*
X178407691Y-102184118D01*
X178407689Y-102184121D01*
X178352460Y-102354098D01*
X178352460Y-102354101D01*
X178332437Y-102480520D01*
X178324500Y-102530634D01*
X178324500Y-102709366D01*
X178332180Y-102757853D01*
X178352460Y-102885898D01*
X178352460Y-102885901D01*
X178407689Y-103055878D01*
X178407691Y-103055881D01*
X178488833Y-103215132D01*
X178593889Y-103359728D01*
X178720272Y-103486111D01*
X178808388Y-103550131D01*
X178851051Y-103605457D01*
X178859500Y-103650446D01*
X178859500Y-104875500D01*
X178839815Y-104942539D01*
X178787011Y-104988294D01*
X178735500Y-104999500D01*
X173100097Y-104999500D01*
X173033058Y-104979815D01*
X173012416Y-104963181D01*
X171336819Y-103287584D01*
X171303334Y-103226261D01*
X171300500Y-103199903D01*
X171300500Y-102530668D01*
X175785000Y-102530668D01*
X175785000Y-102709331D01*
X175812946Y-102885780D01*
X175868155Y-103055693D01*
X175949260Y-103214869D01*
X175958651Y-103227793D01*
X175958652Y-103227794D01*
X176520000Y-102666446D01*
X176520000Y-102672661D01*
X176547259Y-102774394D01*
X176599920Y-102865606D01*
X176674394Y-102940080D01*
X176765606Y-102992741D01*
X176867339Y-103020000D01*
X176873554Y-103020000D01*
X176312205Y-103581347D01*
X176312205Y-103581348D01*
X176325129Y-103590738D01*
X176484306Y-103671844D01*
X176654219Y-103727053D01*
X176830669Y-103755000D01*
X177009331Y-103755000D01*
X177185780Y-103727053D01*
X177355693Y-103671844D01*
X177514867Y-103590739D01*
X177514872Y-103590737D01*
X177527794Y-103581347D01*
X176966447Y-103020000D01*
X176972661Y-103020000D01*
X177074394Y-102992741D01*
X177165606Y-102940080D01*
X177240080Y-102865606D01*
X177292741Y-102774394D01*
X177320000Y-102672661D01*
X177320000Y-102666446D01*
X177881348Y-103227794D01*
X177890737Y-103214872D01*
X177890739Y-103214867D01*
X177971844Y-103055693D01*
X178027053Y-102885780D01*
X178055000Y-102709331D01*
X178055000Y-102530668D01*
X178027053Y-102354219D01*
X177971844Y-102184306D01*
X177890738Y-102025129D01*
X177881347Y-102012205D01*
X177320000Y-102573552D01*
X177320000Y-102567339D01*
X177292741Y-102465606D01*
X177240080Y-102374394D01*
X177165606Y-102299920D01*
X177074394Y-102247259D01*
X176972661Y-102220000D01*
X176966447Y-102220000D01*
X177527794Y-101658652D01*
X177527793Y-101658651D01*
X177514869Y-101649260D01*
X177355693Y-101568155D01*
X177185780Y-101512946D01*
X177009331Y-101485000D01*
X176830669Y-101485000D01*
X176654219Y-101512946D01*
X176484306Y-101568155D01*
X176325127Y-101649262D01*
X176312205Y-101658651D01*
X176312204Y-101658651D01*
X176873554Y-102220000D01*
X176867339Y-102220000D01*
X176765606Y-102247259D01*
X176674394Y-102299920D01*
X176599920Y-102374394D01*
X176547259Y-102465606D01*
X176520000Y-102567339D01*
X176520000Y-102573553D01*
X175958651Y-102012204D01*
X175958651Y-102012205D01*
X175949262Y-102025127D01*
X175868155Y-102184306D01*
X175812946Y-102354219D01*
X175785000Y-102530668D01*
X171300500Y-102530668D01*
X171300500Y-101479765D01*
X171320185Y-101412726D01*
X171321398Y-101410874D01*
X171409390Y-101279185D01*
X171409390Y-101279184D01*
X171409394Y-101279179D01*
X171469737Y-101133497D01*
X171500500Y-100978842D01*
X171500500Y-100821158D01*
X171500500Y-100821155D01*
X171500499Y-100821153D01*
X171487550Y-100756054D01*
X171469737Y-100666503D01*
X171460543Y-100644306D01*
X171409397Y-100520827D01*
X171409390Y-100520814D01*
X171321789Y-100389711D01*
X171321786Y-100389707D01*
X171210292Y-100278213D01*
X171210288Y-100278210D01*
X171079185Y-100190609D01*
X171079172Y-100190602D01*
X170933501Y-100130264D01*
X170933489Y-100130261D01*
X170778845Y-100099500D01*
X170778842Y-100099500D01*
X170621158Y-100099500D01*
X170621155Y-100099500D01*
X170466510Y-100130261D01*
X170466498Y-100130264D01*
X170320827Y-100190602D01*
X170320814Y-100190609D01*
X170189711Y-100278210D01*
X170189707Y-100278213D01*
X170078213Y-100389707D01*
X170078210Y-100389711D01*
X169990609Y-100520814D01*
X169990602Y-100520827D01*
X169930264Y-100666498D01*
X169930261Y-100666510D01*
X169899500Y-100821153D01*
X146728083Y-100821153D01*
X146821851Y-100727385D01*
X147812417Y-99736819D01*
X147873740Y-99703334D01*
X147900098Y-99700500D01*
X177013331Y-99700500D01*
X177013347Y-99700501D01*
X177020943Y-99700501D01*
X177179054Y-99700501D01*
X177179057Y-99700501D01*
X177331785Y-99659577D01*
X177381904Y-99630639D01*
X177468716Y-99580520D01*
X177580520Y-99468716D01*
X177580520Y-99468714D01*
X177590728Y-99458507D01*
X177590730Y-99458504D01*
X179828713Y-97220521D01*
X179828716Y-97220520D01*
X179940520Y-97108716D01*
X179990639Y-97021904D01*
X180019577Y-96971785D01*
X180060501Y-96819057D01*
X180060501Y-96660943D01*
X180060501Y-96653348D01*
X180060500Y-96653330D01*
X180060500Y-96030446D01*
X180080185Y-95963407D01*
X180111609Y-95930132D01*
X180199728Y-95866111D01*
X180326111Y-95739728D01*
X180431167Y-95595132D01*
X180512309Y-95435881D01*
X180523967Y-95400000D01*
X180567539Y-95265901D01*
X180567539Y-95265900D01*
X180567540Y-95265897D01*
X180595500Y-95089366D01*
X180595500Y-94910634D01*
X180567540Y-94734103D01*
X180567539Y-94734102D01*
X180567522Y-94733990D01*
X180576477Y-94664697D01*
X180621473Y-94611245D01*
X180688224Y-94590605D01*
X180755538Y-94609330D01*
X180777669Y-94626904D01*
X180846746Y-94695982D01*
X180880230Y-94757305D01*
X180881537Y-94803060D01*
X180864500Y-94910628D01*
X180864500Y-95089365D01*
X180892460Y-95265898D01*
X180892460Y-95265901D01*
X180947689Y-95435878D01*
X180947691Y-95435881D01*
X181028833Y-95595132D01*
X181133889Y-95739728D01*
X181260272Y-95866111D01*
X181404868Y-95971167D01*
X181564119Y-96052309D01*
X181564121Y-96052310D01*
X181678166Y-96089365D01*
X181734103Y-96107540D01*
X181910634Y-96135500D01*
X181910635Y-96135500D01*
X182089365Y-96135500D01*
X182089366Y-96135500D01*
X182265897Y-96107540D01*
X182265900Y-96107539D01*
X182265901Y-96107539D01*
X182435878Y-96052310D01*
X182435878Y-96052309D01*
X182435881Y-96052309D01*
X182595132Y-95971167D01*
X182739728Y-95866111D01*
X182866111Y-95739728D01*
X182971167Y-95595132D01*
X183052309Y-95435881D01*
X183063967Y-95400000D01*
X183107539Y-95265901D01*
X183107539Y-95265900D01*
X183107540Y-95265897D01*
X183135500Y-95089366D01*
X183135500Y-94910634D01*
X183107540Y-94734103D01*
X183107539Y-94734099D01*
X183107539Y-94734098D01*
X183052310Y-94564121D01*
X183052308Y-94564118D01*
X183030741Y-94521789D01*
X182971167Y-94404868D01*
X182866111Y-94260272D01*
X182739728Y-94133889D01*
X182595132Y-94028833D01*
X182435881Y-93947691D01*
X182435878Y-93947689D01*
X182265899Y-93892460D01*
X182140393Y-93872582D01*
X182089366Y-93864500D01*
X181910634Y-93864500D01*
X181910629Y-93864500D01*
X181803060Y-93881537D01*
X181733766Y-93872582D01*
X181695981Y-93846745D01*
X181636819Y-93787583D01*
X181603334Y-93726260D01*
X181600500Y-93699902D01*
X181600500Y-90189060D01*
X181600501Y-90189047D01*
X181600501Y-90020944D01*
X181600501Y-90020943D01*
X181559577Y-89868216D01*
X181559573Y-89868209D01*
X181480524Y-89731290D01*
X181480518Y-89731282D01*
X178787590Y-87038355D01*
X178787588Y-87038352D01*
X178668717Y-86919481D01*
X178668716Y-86919480D01*
X178581904Y-86869360D01*
X178581904Y-86869359D01*
X178581900Y-86869358D01*
X178531785Y-86840423D01*
X178379057Y-86799499D01*
X178220943Y-86799499D01*
X178213347Y-86799499D01*
X178213331Y-86799500D01*
X177400097Y-86799500D01*
X177333058Y-86779815D01*
X177312416Y-86763181D01*
X175736819Y-85187584D01*
X175703334Y-85126261D01*
X175700500Y-85099903D01*
X175700500Y-75009060D01*
X175700501Y-75009047D01*
X175700501Y-74840944D01*
X175700501Y-74840943D01*
X175659577Y-74688216D01*
X175641748Y-74657335D01*
X175580524Y-74551290D01*
X175580518Y-74551282D01*
X173479870Y-72450634D01*
X184284500Y-72450634D01*
X184284500Y-72629365D01*
X184312460Y-72805898D01*
X184312460Y-72805901D01*
X184367689Y-72975878D01*
X184367691Y-72975881D01*
X184448833Y-73135132D01*
X184553889Y-73279728D01*
X184680272Y-73406111D01*
X184824868Y-73511167D01*
X184984119Y-73592309D01*
X184984121Y-73592310D01*
X185142670Y-73643825D01*
X185154103Y-73647540D01*
X185330634Y-73675500D01*
X185330635Y-73675500D01*
X185509365Y-73675500D01*
X185509366Y-73675500D01*
X185685897Y-73647540D01*
X185685900Y-73647539D01*
X185685901Y-73647539D01*
X185855878Y-73592310D01*
X185855878Y-73592309D01*
X185855881Y-73592309D01*
X186015132Y-73511167D01*
X186159728Y-73406111D01*
X186286111Y-73279728D01*
X186391167Y-73135132D01*
X186472309Y-72975881D01*
X186472310Y-72975878D01*
X186527539Y-72805901D01*
X186527539Y-72805900D01*
X186527540Y-72805897D01*
X186555500Y-72629366D01*
X186555500Y-72450634D01*
X186527540Y-72274103D01*
X186527539Y-72274099D01*
X186527539Y-72274098D01*
X186472310Y-72104121D01*
X186472308Y-72104118D01*
X186391166Y-71944867D01*
X186286111Y-71800272D01*
X186159728Y-71673889D01*
X186015132Y-71568833D01*
X185855881Y-71487691D01*
X185855878Y-71487689D01*
X185685899Y-71432460D01*
X185568209Y-71413820D01*
X185509366Y-71404500D01*
X185330634Y-71404500D01*
X185271790Y-71413820D01*
X185154101Y-71432460D01*
X185154098Y-71432460D01*
X184984121Y-71487689D01*
X184984118Y-71487691D01*
X184824867Y-71568833D01*
X184680270Y-71673890D01*
X184553890Y-71800270D01*
X184448833Y-71944867D01*
X184367691Y-72104118D01*
X184367689Y-72104121D01*
X184312460Y-72274098D01*
X184312460Y-72274101D01*
X184284500Y-72450634D01*
X173479870Y-72450634D01*
X171333253Y-70304017D01*
X171299768Y-70242694D01*
X171298461Y-70196943D01*
X171315500Y-70089366D01*
X171315500Y-69910668D01*
X184285000Y-69910668D01*
X184285000Y-70089331D01*
X184312946Y-70265780D01*
X184368155Y-70435693D01*
X184449260Y-70594869D01*
X184458651Y-70607793D01*
X184458652Y-70607794D01*
X185020000Y-70046446D01*
X185020000Y-70052661D01*
X185047259Y-70154394D01*
X185099920Y-70245606D01*
X185174394Y-70320080D01*
X185265606Y-70372741D01*
X185367339Y-70400000D01*
X185373554Y-70400000D01*
X184812205Y-70961347D01*
X184812205Y-70961348D01*
X184825129Y-70970738D01*
X184984306Y-71051844D01*
X185154219Y-71107053D01*
X185330669Y-71135000D01*
X185509331Y-71135000D01*
X185685780Y-71107053D01*
X185855693Y-71051844D01*
X186014867Y-70970739D01*
X186014872Y-70970737D01*
X186027794Y-70961347D01*
X185466447Y-70400000D01*
X185472661Y-70400000D01*
X185574394Y-70372741D01*
X185665606Y-70320080D01*
X185740080Y-70245606D01*
X185792741Y-70154394D01*
X185820000Y-70052661D01*
X185820000Y-70046446D01*
X186381348Y-70607794D01*
X186390737Y-70594872D01*
X186390739Y-70594867D01*
X186471844Y-70435693D01*
X186527053Y-70265780D01*
X186555000Y-70089331D01*
X186555000Y-69910668D01*
X186527053Y-69734219D01*
X186471844Y-69564306D01*
X186390738Y-69405129D01*
X186381347Y-69392205D01*
X185820000Y-69953552D01*
X185820000Y-69947339D01*
X185792741Y-69845606D01*
X185740080Y-69754394D01*
X185665606Y-69679920D01*
X185574394Y-69627259D01*
X185472661Y-69600000D01*
X185466447Y-69600000D01*
X186027794Y-69038652D01*
X186027793Y-69038651D01*
X186014869Y-69029260D01*
X185855693Y-68948155D01*
X185685780Y-68892946D01*
X185509331Y-68865000D01*
X185330669Y-68865000D01*
X185154219Y-68892946D01*
X184984306Y-68948155D01*
X184825127Y-69029262D01*
X184812205Y-69038651D01*
X184812204Y-69038651D01*
X185373554Y-69600000D01*
X185367339Y-69600000D01*
X185265606Y-69627259D01*
X185174394Y-69679920D01*
X185099920Y-69754394D01*
X185047259Y-69845606D01*
X185020000Y-69947339D01*
X185020000Y-69953553D01*
X184458651Y-69392204D01*
X184458651Y-69392205D01*
X184449262Y-69405127D01*
X184368155Y-69564306D01*
X184312946Y-69734219D01*
X184285000Y-69910668D01*
X171315500Y-69910668D01*
X171315500Y-69910634D01*
X171287540Y-69734103D01*
X171287539Y-69734099D01*
X171287539Y-69734098D01*
X171232310Y-69564121D01*
X171232308Y-69564118D01*
X171229876Y-69559343D01*
X171151167Y-69404868D01*
X171046111Y-69260272D01*
X170919728Y-69133889D01*
X170775132Y-69028833D01*
X170615881Y-68947691D01*
X170615878Y-68947689D01*
X170445899Y-68892460D01*
X170328209Y-68873820D01*
X170269366Y-68864500D01*
X170090634Y-68864500D01*
X170031790Y-68873820D01*
X169914101Y-68892460D01*
X169914098Y-68892460D01*
X169744121Y-68947689D01*
X169744118Y-68947691D01*
X169584867Y-69028833D01*
X169440270Y-69133890D01*
X169313890Y-69260270D01*
X169208833Y-69404867D01*
X169127691Y-69564118D01*
X169127689Y-69564121D01*
X169072460Y-69734098D01*
X169072460Y-69734101D01*
X169044500Y-69910634D01*
X169044500Y-70089365D01*
X169072460Y-70265898D01*
X169072460Y-70265901D01*
X169127689Y-70435878D01*
X169127691Y-70435881D01*
X169208833Y-70595132D01*
X169313889Y-70739728D01*
X169440272Y-70866111D01*
X169584868Y-70971167D01*
X169744119Y-71052309D01*
X169744121Y-71052310D01*
X169902670Y-71103825D01*
X169914103Y-71107540D01*
X170090634Y-71135500D01*
X170090635Y-71135500D01*
X170269364Y-71135500D01*
X170269366Y-71135500D01*
X170376940Y-71118461D01*
X170446230Y-71127415D01*
X170484017Y-71153253D01*
X170553087Y-71222323D01*
X170586572Y-71283646D01*
X170581588Y-71353338D01*
X170539716Y-71409271D01*
X170474252Y-71433688D01*
X170446008Y-71432477D01*
X170307213Y-71410494D01*
X170269366Y-71404500D01*
X170090634Y-71404500D01*
X170031790Y-71413820D01*
X169914101Y-71432460D01*
X169914098Y-71432460D01*
X169744121Y-71487689D01*
X169744118Y-71487691D01*
X169584867Y-71568833D01*
X169440270Y-71673890D01*
X169313890Y-71800270D01*
X169208833Y-71944867D01*
X169127691Y-72104118D01*
X169127689Y-72104121D01*
X169072460Y-72274098D01*
X169072460Y-72274101D01*
X169044500Y-72450634D01*
X169044500Y-72629365D01*
X169072477Y-72806008D01*
X169063522Y-72875302D01*
X169018526Y-72928754D01*
X168951774Y-72949393D01*
X168884461Y-72930668D01*
X168862323Y-72913087D01*
X168768717Y-72819481D01*
X168768716Y-72819480D01*
X168681904Y-72769360D01*
X168681904Y-72769359D01*
X168681900Y-72769358D01*
X168631785Y-72740423D01*
X168479057Y-72699499D01*
X168320943Y-72699499D01*
X168313347Y-72699499D01*
X168313331Y-72699500D01*
X158840097Y-72699500D01*
X158773058Y-72679815D01*
X158752416Y-72663181D01*
X155693253Y-69604018D01*
X155659768Y-69542695D01*
X155658461Y-69496943D01*
X155675500Y-69389366D01*
X155675500Y-69210634D01*
X155647540Y-69034103D01*
X155647539Y-69034099D01*
X155647539Y-69034098D01*
X155592310Y-68864121D01*
X155592308Y-68864117D01*
X155589275Y-68858164D01*
X155511167Y-68704868D01*
X155406111Y-68560272D01*
X155279728Y-68433889D01*
X155135132Y-68328833D01*
X154975881Y-68247691D01*
X154975878Y-68247689D01*
X154805899Y-68192460D01*
X154688209Y-68173820D01*
X154629366Y-68164500D01*
X154450634Y-68164500D01*
X154391790Y-68173820D01*
X154274101Y-68192460D01*
X154274098Y-68192460D01*
X154104121Y-68247689D01*
X154104118Y-68247691D01*
X153944867Y-68328833D01*
X153800270Y-68433890D01*
X153673890Y-68560270D01*
X153568833Y-68704867D01*
X153487692Y-68864117D01*
X153487689Y-68864121D01*
X153432460Y-69034098D01*
X153432460Y-69034101D01*
X153404500Y-69210634D01*
X153404500Y-69389366D01*
X153404499Y-69389366D01*
X153432477Y-69566010D01*
X153423522Y-69635303D01*
X153378526Y-69688755D01*
X153311774Y-69709394D01*
X153244461Y-69690669D01*
X153222323Y-69673088D01*
X153153253Y-69604018D01*
X153119768Y-69542695D01*
X153118461Y-69496943D01*
X153135500Y-69389366D01*
X153135500Y-69210634D01*
X153107540Y-69034103D01*
X153107539Y-69034099D01*
X153107539Y-69034098D01*
X153052310Y-68864121D01*
X153052308Y-68864117D01*
X153049275Y-68858164D01*
X152971167Y-68704868D01*
X152866111Y-68560272D01*
X152739728Y-68433889D01*
X152595132Y-68328833D01*
X152435881Y-68247691D01*
X152435878Y-68247689D01*
X152265899Y-68192460D01*
X152148209Y-68173820D01*
X152089366Y-68164500D01*
X151910634Y-68164500D01*
X151851790Y-68173820D01*
X151734101Y-68192460D01*
X151734098Y-68192460D01*
X151564121Y-68247689D01*
X151564118Y-68247691D01*
X151404867Y-68328833D01*
X151260270Y-68433890D01*
X151133890Y-68560270D01*
X151028833Y-68704867D01*
X150947692Y-68864117D01*
X150947689Y-68864121D01*
X150892460Y-69034098D01*
X150892460Y-69034101D01*
X150864500Y-69210634D01*
X150864500Y-69389366D01*
X150864950Y-69392205D01*
X150865864Y-69397976D01*
X150856907Y-69467270D01*
X150811909Y-69520720D01*
X150745157Y-69541358D01*
X150677844Y-69522631D01*
X150655709Y-69505052D01*
X150631819Y-69481162D01*
X150598334Y-69419839D01*
X150595500Y-69393481D01*
X150595500Y-69210634D01*
X150583345Y-69133890D01*
X150567540Y-69034103D01*
X150567539Y-69034099D01*
X150567539Y-69034098D01*
X150512310Y-68864121D01*
X150512308Y-68864117D01*
X150509275Y-68858164D01*
X150431167Y-68704868D01*
X150326111Y-68560272D01*
X150199728Y-68433889D01*
X150055132Y-68328833D01*
X149895881Y-68247691D01*
X149895878Y-68247689D01*
X149725899Y-68192460D01*
X149608209Y-68173820D01*
X149549366Y-68164500D01*
X149370634Y-68164500D01*
X149311790Y-68173820D01*
X149194101Y-68192460D01*
X149194098Y-68192460D01*
X149024121Y-68247689D01*
X149024118Y-68247691D01*
X148864867Y-68328833D01*
X148720270Y-68433890D01*
X148593890Y-68560270D01*
X148488833Y-68704867D01*
X148407692Y-68864117D01*
X148407689Y-68864121D01*
X148352460Y-69034098D01*
X148352460Y-69034101D01*
X148324500Y-69210634D01*
X148324500Y-69389366D01*
X148332085Y-69437257D01*
X148352460Y-69565898D01*
X148352460Y-69565901D01*
X148407689Y-69735878D01*
X148407691Y-69735881D01*
X148488833Y-69895132D01*
X148593889Y-70039728D01*
X148720272Y-70166111D01*
X148864868Y-70271167D01*
X149024119Y-70352309D01*
X149024121Y-70352310D01*
X149087002Y-70372741D01*
X149194103Y-70407540D01*
X149370634Y-70435500D01*
X149370635Y-70435500D01*
X149553481Y-70435500D01*
X149620520Y-70455185D01*
X149641162Y-70471819D01*
X149963181Y-70793838D01*
X149996666Y-70855161D01*
X149999500Y-70881519D01*
X149999500Y-87358480D01*
X149979815Y-87425519D01*
X149963181Y-87446161D01*
X139135888Y-98273453D01*
X139135887Y-98273454D01*
X139059222Y-98388192D01*
X139006421Y-98515667D01*
X139006418Y-98515677D01*
X138979500Y-98651004D01*
X138979500Y-103043298D01*
X138959815Y-103110337D01*
X138943182Y-103130979D01*
X138813888Y-103260273D01*
X138708833Y-103404867D01*
X138627691Y-103564118D01*
X138627689Y-103564121D01*
X138572460Y-103734098D01*
X138572460Y-103734101D01*
X138569150Y-103755000D01*
X138544500Y-103910634D01*
X135500500Y-103910634D01*
X135500500Y-69210668D01*
X145785000Y-69210668D01*
X145785000Y-69389331D01*
X145812946Y-69565780D01*
X145868155Y-69735693D01*
X145949260Y-69894869D01*
X145958651Y-69907793D01*
X145958652Y-69907794D01*
X146520000Y-69346446D01*
X146520000Y-69352661D01*
X146547259Y-69454394D01*
X146599920Y-69545606D01*
X146674394Y-69620080D01*
X146765606Y-69672741D01*
X146867339Y-69700000D01*
X146873554Y-69700000D01*
X146312205Y-70261347D01*
X146312205Y-70261348D01*
X146325129Y-70270738D01*
X146484306Y-70351844D01*
X146654219Y-70407053D01*
X146830669Y-70435000D01*
X147009331Y-70435000D01*
X147185780Y-70407053D01*
X147355693Y-70351844D01*
X147514867Y-70270739D01*
X147514872Y-70270737D01*
X147527794Y-70261347D01*
X146966447Y-69700000D01*
X146972661Y-69700000D01*
X147074394Y-69672741D01*
X147165606Y-69620080D01*
X147240080Y-69545606D01*
X147292741Y-69454394D01*
X147320000Y-69352661D01*
X147320000Y-69346446D01*
X147881348Y-69907794D01*
X147890737Y-69894872D01*
X147890739Y-69894867D01*
X147971844Y-69735693D01*
X148027053Y-69565780D01*
X148055000Y-69389331D01*
X148055000Y-69210668D01*
X148027053Y-69034219D01*
X147971844Y-68864306D01*
X147890738Y-68705129D01*
X147881347Y-68692205D01*
X147320000Y-69253552D01*
X147320000Y-69247339D01*
X147292741Y-69145606D01*
X147240080Y-69054394D01*
X147165606Y-68979920D01*
X147074394Y-68927259D01*
X146972661Y-68900000D01*
X146966447Y-68900000D01*
X147527794Y-68338652D01*
X147527793Y-68338651D01*
X147514869Y-68329260D01*
X147355693Y-68248155D01*
X147185780Y-68192946D01*
X147009331Y-68165000D01*
X146830669Y-68165000D01*
X146654219Y-68192946D01*
X146484306Y-68248155D01*
X146325127Y-68329262D01*
X146312205Y-68338651D01*
X146312204Y-68338651D01*
X146873554Y-68900000D01*
X146867339Y-68900000D01*
X146765606Y-68927259D01*
X146674394Y-68979920D01*
X146599920Y-69054394D01*
X146547259Y-69145606D01*
X146520000Y-69247339D01*
X146520000Y-69253553D01*
X145958651Y-68692204D01*
X145958651Y-68692205D01*
X145949262Y-68705127D01*
X145868155Y-68864306D01*
X145812946Y-69034219D01*
X145785000Y-69210668D01*
X135500500Y-69210668D01*
X135500500Y-67370634D01*
X169044500Y-67370634D01*
X169044500Y-67549365D01*
X169072460Y-67725898D01*
X169072460Y-67725901D01*
X169127689Y-67895878D01*
X169127691Y-67895881D01*
X169208833Y-68055132D01*
X169313889Y-68199728D01*
X169440272Y-68326111D01*
X169584868Y-68431167D01*
X169744119Y-68512309D01*
X169744121Y-68512310D01*
X169891728Y-68560270D01*
X169914103Y-68567540D01*
X170090634Y-68595500D01*
X170090635Y-68595500D01*
X170269365Y-68595500D01*
X170269366Y-68595500D01*
X170445897Y-68567540D01*
X170445900Y-68567539D01*
X170445901Y-68567539D01*
X170615878Y-68512310D01*
X170615878Y-68512309D01*
X170615881Y-68512309D01*
X170775132Y-68431167D01*
X170919728Y-68326111D01*
X171046111Y-68199728D01*
X171151167Y-68055132D01*
X171232309Y-67895881D01*
X171287540Y-67725897D01*
X171315500Y-67549366D01*
X171315500Y-67370634D01*
X184284500Y-67370634D01*
X184284500Y-67549365D01*
X184312460Y-67725898D01*
X184312460Y-67725901D01*
X184367689Y-67895878D01*
X184367691Y-67895881D01*
X184448833Y-68055132D01*
X184553889Y-68199728D01*
X184680272Y-68326111D01*
X184824868Y-68431167D01*
X184984119Y-68512309D01*
X184984121Y-68512310D01*
X185131728Y-68560270D01*
X185154103Y-68567540D01*
X185330634Y-68595500D01*
X185330635Y-68595500D01*
X185509365Y-68595500D01*
X185509366Y-68595500D01*
X185685897Y-68567540D01*
X185685900Y-68567539D01*
X185685901Y-68567539D01*
X185855878Y-68512310D01*
X185855878Y-68512309D01*
X185855881Y-68512309D01*
X186015132Y-68431167D01*
X186159728Y-68326111D01*
X186286111Y-68199728D01*
X186391167Y-68055132D01*
X186472309Y-67895881D01*
X186527540Y-67725897D01*
X186555500Y-67549366D01*
X186555500Y-67370634D01*
X186527540Y-67194103D01*
X186527539Y-67194099D01*
X186527539Y-67194098D01*
X186472310Y-67024121D01*
X186472308Y-67024118D01*
X186391166Y-66864867D01*
X186286111Y-66720272D01*
X186159728Y-66593889D01*
X186015132Y-66488833D01*
X185855881Y-66407691D01*
X185855878Y-66407689D01*
X185685899Y-66352460D01*
X185568209Y-66333820D01*
X185509366Y-66324500D01*
X185330634Y-66324500D01*
X185271790Y-66333820D01*
X185154101Y-66352460D01*
X185154098Y-66352460D01*
X184984121Y-66407689D01*
X184984118Y-66407691D01*
X184824867Y-66488833D01*
X184680270Y-66593890D01*
X184553890Y-66720270D01*
X184448833Y-66864867D01*
X184367691Y-67024118D01*
X184367689Y-67024121D01*
X184312460Y-67194098D01*
X184312460Y-67194101D01*
X184284500Y-67370634D01*
X171315500Y-67370634D01*
X171287540Y-67194103D01*
X171287539Y-67194099D01*
X171287539Y-67194098D01*
X171232310Y-67024121D01*
X171232308Y-67024118D01*
X171151166Y-66864867D01*
X171046111Y-66720272D01*
X170919728Y-66593889D01*
X170775132Y-66488833D01*
X170615881Y-66407691D01*
X170615878Y-66407689D01*
X170445899Y-66352460D01*
X170328209Y-66333820D01*
X170269366Y-66324500D01*
X170090634Y-66324500D01*
X170031790Y-66333820D01*
X169914101Y-66352460D01*
X169914098Y-66352460D01*
X169744121Y-66407689D01*
X169744118Y-66407691D01*
X169584867Y-66488833D01*
X169440270Y-66593890D01*
X169313890Y-66720270D01*
X169208833Y-66864867D01*
X169127691Y-67024118D01*
X169127689Y-67024121D01*
X169072460Y-67194098D01*
X169072460Y-67194101D01*
X169044500Y-67370634D01*
X135500500Y-67370634D01*
X135500500Y-65624500D01*
X135520185Y-65557461D01*
X135572989Y-65511706D01*
X135624500Y-65500500D01*
X195375500Y-65500500D01*
X195442539Y-65520185D01*
G37*
%TD.AperFunction*%
%TD*%
M02*
